<?xml version="1.0" encoding="utf-8"?>
<!-- Generator: Adobe Illustrator 27.5.0, SVG Export Plug-In . SVG Version: 6.00 Build 0)  -->
<svg version="1.1" id="Layer_1" xmlns="http://www.w3.org/2000/svg" xmlns:xlink="http://www.w3.org/1999/xlink" x="0px" y="0px"
	 viewBox="0 0 3500 2000" style="enable-background:new 0 0 3500 2000;" xml:space="preserve">
<rect style="fill:#FFFFFF;" width="3500" height="2000"/>
<g>
	<path style="fill:#E4F0FF;" d="M3312.626,1619.225c-56.231-198.349,53.252-407.291-59.01-595.243
		c-35.651-59.689-91.358-112.236-138.167-168.034c-70.667-84.238-121.486-176.86-149.177-271.885
		c-18.115-62.166-26.481-125.466-52.05-186.6c-70.933-169.588-282.825-309.23-516.064-340.097
		c-187.973-24.876-382.466,6.968-536.191,79.054C1171.488,460.202,811.763,307.043,570.716,418.755
		c-151.085,70.02-225.496,200.218-270.362,330.378c-44.866,130.16-62.841,358.761-128.053,505.982
		c-216.544,488.867,100.534,662.821,241.91,713.977c5.052,1.828,26.379,4.37,31.583,5.972l360.249,5.282
		c71.671-9.976,235.265-6.399,293.478-4.776c228.61,6.372,418.024-5.712,617.353-3.613c496.598,5.228,961.628,7.114,1429.422,4.276
		c68.454-0.415,108.125-17.963,158.953-49.159c54.183-33.255,67.834-92.403,59.021-146.767S3327.921,1673.174,3312.626,1619.225z"/>
	<g style="opacity:0.5;">
		<polygon style="fill:#FFFFFF;" points="1757.01,529.682 2107.594,529.682 2268.621,195.427 1918.037,195.427 		"/>
		<polygon style="fill:#FFFFFF;" points="2322.076,195.427 2161.049,529.682 2511.632,529.682 2672.659,195.427 		"/>
		<polygon style="fill:#FFFFFF;" points="1579.848,897.428 1930.432,897.428 2091.458,563.173 1740.875,563.173 		"/>
		<polygon style="fill:#FFFFFF;" points="1983.887,897.428 2334.471,897.428 2495.498,563.173 2144.914,563.173 		"/>
	</g>
	<g>
		<path style="fill:#FFC0BB;" d="M2053.98,1352.012c-0.859,0.852-0.439,2.323,0.744,2.573c9.169,1.94,37.981,8.231,38.018,10.677
			c0.045,2.907-25.838-2.086-27.207,0.241s24,6.56,23.546,9.675c-0.454,3.116-23.457-1.52-24.106-0.272
			c-0.65,1.246,20.914,8.043,21.746,10.036s-23.07-2.462-24.287-1.173c-1.218,1.288,14.255,9.848,13.674,11.261
			c-0.58,1.413-0.732,2.451-41.087-6.838l-15.731-4.335l-10.934-10.475l6.801-16.884c0,0,48.682-21.691,50.537-20.516
			C2067.464,1337.104,2067.207,1338.894,2053.98,1352.012z"/>
		<g>
			<g>
				<path style="fill:#7683C4;" d="M1853.665,1135.424l44.821,177.948l123.078,38.546c0,0-2.769,35.365-2.433,35.146
					s-163.498,1.415-181.399-12.77c-17.9-14.185-22.868-206.759-22.868-206.759L1853.665,1135.424z"/>
			</g>
		</g>
		<g>
			<g>
				<g>
					<path style="fill:#3C2340;" d="M1643.211,1932.261l25.546-0.103c2.063-0.008,3.845-1.654,4.277-3.953l0,0
						c0.285-1.512,1.506-2.531,2.826-2.357l0.34-0.02c2.62,0.345,0.023,1.452,0,4.457l8.306,9.098l5.043,4.563
						c5.697,5.153,12.667,8.151,19.94,8.576l7.592,0.443c2.287,0.134,4.429,1.304,5.951,3.248l0.726,0.928
						c2.881,3.683,4.455,8.456,4.417,13.394l0,0l-59.07,0.729c-2.007-0.015-3.967-0.681-5.649-1.921l-8.135-5.833l-0.059,7.666
						l-16.524-0.117l0.24-31.239C1639.012,1935.634,1639.537,1932.273,1643.211,1932.261z"/>
				</g>
			</g>
			
				<rect x="1638.747" y="1970.896" transform="matrix(1 -0.0089 0.0089 1 -17.4055 14.6692)" style="fill:#07085B;" width="16.536" height="2.017"/>
			<path style="fill:#07085B;" d="M1728.191,1972.189l-61.421,0.548c-0.236,0.002-0.428-0.188-0.43-0.423l-0.014-1.591l61.847-0.552
				L1728.191,1972.189z"/>
		</g>
		<g>
			<g>
				<g>
					<path style="fill:#3C2340;" d="M1812.551,1932.261l25.547-0.103c2.063-0.008,3.845-1.654,4.276-3.953l0,0
						c0.284-1.512,1.506-2.531,2.826-2.357l0.341-0.02c2.62,0.345,0.022,1.452,0,4.457l8.306,9.098l5.044,4.563
						c5.696,5.153,12.667,8.151,19.94,8.576l7.591,0.443c2.287,0.134,4.43,1.304,5.951,3.248l0.727,0.928
						c2.881,3.683,4.455,8.456,4.416,13.394l0,0l-59.069,0.729c-2.007-0.015-3.967-0.681-5.649-1.921l-8.135-5.833l-0.059,7.666
						l-16.524-0.117l0.24-31.239C1808.352,1935.634,1808.876,1932.273,1812.551,1932.261z"/>
				</g>
			</g>
			
				<rect x="1808.087" y="1970.896" transform="matrix(1 -0.0089 0.0089 1 -17.3979 16.1686)" style="fill:#07085B;" width="16.537" height="2.017"/>
			<path style="fill:#07085B;" d="M1897.531,1972.189l-61.422,0.548c-0.235,0.002-0.428-0.188-0.43-0.423l-0.014-1.591l61.847-0.552
				L1897.531,1972.189z"/>
		</g>
		<g>
			<path style="fill:#07085B;" d="M1723.232,1034.446c0,0-11.877-49.854,15.678-68.769c27.555-18.915,56.875-17.057,76.899-6.002
				c20.024,11.055,32.188,50.039,23.357,72.433l-66.38-20.815L1723.232,1034.446z"/>
			<polygon style="fill:#FFC0BB;" points="1755.165,1078.895 1752.872,1135.243 1802.311,1130.722 1794.438,1081.254 			"/>
			<path style="fill:#F99893;" d="M1798.182,1104.779l-3.744-23.525l-39.271-2.359l-0.795,19.515
				C1762.48,1105.815,1776.809,1113.237,1798.182,1104.779z"/>
			<path style="fill:#F99893;" d="M1825.709,1037.928c-2.711,6.291-0.829,13.148,4.203,15.317c5.032,2.168,11.31-1.173,14.021-7.463
				c2.711-6.291,0.829-13.148-4.203-15.317C1834.697,1028.297,1828.42,1031.638,1825.709,1037.928z"/>
			<path style="fill:#FFC0BB;" d="M1823.152,1074.991c1.633-2.704,3.025-5.579,4.154-8.595c3.198-8.098,4.903-16.729,5.788-24.269
				c0.189-1.618,0.472-3.221,0.785-4.819c1.264-6.455,1.376-13.323-0.005-20.417c-4.443-22.823-23.721-40.334-46.869-42.514
				c-31.185-2.937-57.494,21.201-58.101,51.684c-3.277-1.907-6.99-2.406-10.296-1.008c-6.343,2.683-8.765,11.285-5.411,19.214
				c3.354,7.928,11.214,12.179,17.557,9.496c0.881-0.373,1.678-0.869,2.402-1.453c2.127,25.989,22.981,46.434,48.478,46.519
				c12.469,0.041,23.857-4.8,32.515-12.788c0.578-0.465,1.186-1.01,1.825-1.645
				C1818.781,1081.608,1821.144,1078.415,1823.152,1074.991z"/>
			<path style="fill:#F99893;" d="M1793.767,1026.831c0.233,3.028,0.386,5.987,0.668,8.881c0.313,2.827,0.753,5.847,1.978,7.795
				l0.241,0.309c0.09,0.116,0.114,0.179,0.298,0.385c0.286,0.368,0.626,0.673,0.85,1.107c0.494,0.805,0.854,1.754,0.912,2.745
				c0.156,2.003-0.824,3.845-2.098,5c-2.605,2.393-6.1,2.762-9.033,2.172c2.938-0.65,5.73-1.792,7.298-3.797
				c0.723-0.994,1.184-2.09,0.963-3.087c-0.078-0.494-0.269-0.974-0.579-1.416c-0.11-0.239-0.358-0.427-0.521-0.65l-0.4-0.485
				l-0.45-0.569c-1.019-1.576-1.393-3.202-1.643-4.778c-0.217-1.585-0.263-3.13-0.183-4.668
				C1792.229,1032.711,1792.749,1029.706,1793.767,1026.831z"/>
			<path style="fill:#333333;" d="M1776.381,1031.604c-0.009,2.555-2.087,4.618-4.642,4.609c-2.554-0.008-4.618-2.086-4.609-4.641
				c0.009-2.554,2.087-4.618,4.641-4.609C1774.325,1026.972,1776.389,1029.049,1776.381,1031.604z"/>
			<path style="fill:#333333;" d="M1816.09,1034.341c-0.008,2.555-2.086,4.618-4.64,4.609c-2.555-0.009-4.618-2.086-4.61-4.641
				c0.009-2.554,2.087-4.618,4.641-4.609C1814.035,1029.709,1816.1,1031.786,1816.09,1034.341z"/>
			<path style="fill:#07085B;" d="M1781.728,1020.916c-2.385-0.624-4.622-1.082-6.827-1.327c-2.202-0.242-4.348-0.207-6.425,0.138
				c-2.063,0.369-4.134,0.905-6.103,1.905c-1.051,0.378-1.953,1.05-3.012,1.547c-1.017,0.563-1.952,1.265-3.095,1.825
				c0.535-1.098,1.168-2.176,1.917-3.172c0.834-0.908,1.626-1.927,2.686-2.638c1.965-1.634,4.48-2.632,7.041-3.065
				c2.578-0.424,5.243-0.16,7.637,0.68C1777.927,1017.668,1780.131,1019.002,1781.728,1020.916z"/>
			<path style="fill:#07085B;" d="M1802.183,1022.323c1.794-1.73,4.13-2.818,6.589-3.414c2.47-0.576,5.148-0.549,7.665,0.151
				c2.499,0.708,4.892,1.973,6.667,3.811c0.978,0.82,1.654,1.92,2.385,2.913c0.637,1.07,1.149,2.211,1.563,3.36
				c-1.074-0.682-1.93-1.479-2.879-2.15c-0.999-0.608-1.823-1.375-2.827-1.864c-1.849-1.207-3.848-1.964-5.86-2.555
				c-2.027-0.567-4.156-0.835-6.371-0.833C1806.895,1021.747,1804.62,1021.96,1802.183,1022.323z"/>
			<path style="fill:#07085B;" d="M1729.674,1026.775c-3.054-2.618-5.387-2.412-5.387-2.412l1.306-16.149l4.972-9.749
				c0,0,19.536-26.259,20.225-26.912c0.689-0.652,15.649-9.182,16.57-9.621s21.945,2.639,21.945,2.639s36.915-7.715,30.767,11.634
				c-6.148,19.35-33.084,29.599-34.475,28.746c4.363-4.349,4.759-16.652,4.759-16.652
				C1771.344,1009.102,1735.29,1024.463,1729.674,1026.775z"/>
			<path style="fill:#FFFFFF;" d="M1805.419,1061.899c-1.044,5.797-6.424,10.302-13.022,10.476
				c-6.598,0.173-12.199-4.043-13.535-9.778L1805.419,1061.899z"/>
		</g>
		<path style="fill:#FFC0BB;" d="M1740.296,1121.918l69.606-0.192l8.813,41.129l-38.19,99.884c0,0-38.191-41.129-38.191-47.004
			c0-5.876-17.627-49.942-14.689-55.818C1730.583,1154.041,1740.296,1121.918,1740.296,1121.918z"/>
		<path style="fill:#2C377A;" d="M1866.958,1406.149c-29.46,44.323-88.326,108.262-88.326,108.262l0,0l27.138,429.487
			c0,0,39.303,4.246,52.813-6.187C1858.583,1937.712,1868.881,1530.541,1866.958,1406.149z"/>
		<path style="fill:#404996;" d="M1855.814,1422.624c-0.097-6.283,11.378,12.243,11.161,7.227
			c-4.504-104.323-147.489-16.853-147.489-16.853l-30.032-6.309l-55.172,535.479c0,0,35.893,7.916,56.446,0l87.903-422.521
			C1778.632,1519.646,1810.086,1506.161,1855.814,1422.624z"/>
		<path style="fill:#FFC0BB;" d="M1673.51,1498.043c-0.798-0.909-2.292-0.579-2.614,0.587c-2.494,9.034-10.523,37.411-12.966,37.3
			c-2.905-0.134,3.652-25.664,1.412-27.173c-2.24-1.508-8.005,23.558-11.088,22.915c-3.083-0.644,2.942-23.321,1.737-24.046
			c-1.205-0.724-9.299,20.387-11.339,21.097c-2.04,0.709,3.859-22.878,2.646-24.172c-1.212-1.293-10.696,13.631-12.071,12.966
			c-1.375-0.666-2.402-0.88,9.322-40.596l5.283-15.439l11.119-10.276l16.439,7.813c0,0,18.693,49.91,17.407,51.691
			C1687.571,1512.408,1685.8,1512.043,1673.51,1498.043z"/>
		<path style="fill:#3C2340;" d="M1746.47,1128.389c0,0,34.736,21.035,62.284,0c0,0,15.664,41.354,14.179,42.839
			s-17.825,46.049-17.825,47.534s-19.311,19.311-28.224,5.941c-8.912-13.369-14.854-11.883-26.737-40.106
			c-11.884-28.224-20.796-37.136-17.825-40.106C1735.292,1141.52,1746.47,1128.389,1746.47,1128.389z"/>
		<g>
			<path style="fill:#838CCF;" d="M1742.334,1121.726c0,0-70.507,5.875-85.196,29.378c-14.688,23.502-49.942,158.64-47.004,199.769
				c2.938,41.129,29.378,120.448,29.378,120.448s23.502,2.938,32.315-11.751c0,0-17.626-111.636-14.689-120.448
				c2.938-8.813,35.253-99.885,35.253-99.885l-5.875,179.204c0,0,70.506,44.066,182.142,8.813c0,0,14.689-290.84-23.502-299.653
				l-35.254-5.875l-14.688,85.195L1742.334,1121.726z"/>
		</g>
	</g>
	<g>
		<polygon style="fill:#FFC0BB;" points="2256.08,1079.653 2255.968,1088.682 2254.943,1111.126 2299.129,1105.311 
			2303.944,1098.763 2304.33,1081.707 2305.783,1065.733 2276.41,1065.733 		"/>
		<path style="fill:#07085B;" d="M2323.808,963.593c0,0,16.75-12.103,36.906-1.671c20.155,10.431,21.886,48.615,14.561,58.103
			c-7.324,9.489,1.371,21.488-13.565,34.119c-14.936,12.631-39.379,18.125-54.078,4.826c-14.701-13.299-5.791-44.855-5.791-44.855
			L2323.808,963.593z"/>
		<path style="fill:#F99893;" d="M2229.318,1013.81c2.771,6.608,0.743,13.766-4.531,15.986c-5.275,2.222-11.799-1.334-14.57-7.941
			c-2.773-6.608-0.744-13.766,4.531-15.987C2220.022,1003.648,2226.546,1007.203,2229.318,1013.81z"/>
		<path style="fill:#F99893;" d="M2306.26,1061.688c0,0-1.166,9.06-1.93,20.019c-9.876,8.005-22.643,12.099-35.949,10.378
			c-4.377-0.566-8.532-1.736-12.413-3.403c0.309-7.147,0.202-13.774-0.901-16.947
			C2252.032,1063.008,2306.26,1061.688,2306.26,1061.688z"/>
		<path style="fill:#FFC0BB;" d="M2231.644,1052.616c-1.681-2.845-3.108-5.867-4.259-9.032c-3.265-8.504-4.965-17.551-5.817-25.449
			c-0.183-1.694-0.464-3.374-0.775-5.051c-1.26-6.767-1.313-13.954,0.194-21.363c4.852-23.838,25.144-41.977,49.335-44.038
			c32.591-2.776,59.838,22.732,60.188,54.633c3.44-1.965,7.323-2.452,10.761-0.957c6.599,2.868,9.048,11.892,5.472,20.155
			c-3.575,8.264-11.823,12.638-18.421,9.77c-0.916-0.398-1.743-0.926-2.494-1.543c-2.463,27.174-24.429,48.367-51.053,48.213
			c-13.021-0.074-24.867-5.248-33.832-13.689c-0.6-0.491-1.229-1.067-1.891-1.738
			C2236.146,1059.581,2233.709,1056.218,2231.644,1052.616z"/>
		<path style="fill:#333333;" d="M2279.624,1012.242c-0.017,2.877,2.298,5.222,5.169,5.238c2.871,0.017,5.212-2.302,5.228-5.179
			c0.017-2.877-2.299-5.223-5.169-5.239C2281.98,1007.046,2279.64,1009.365,2279.624,1012.242z"/>
		<path style="fill:#333333;" d="M2237,1014.173c-0.016,2.876,2.299,5.222,5.17,5.239c2.87,0.016,5.211-2.303,5.227-5.18
			c0.017-2.877-2.298-5.223-5.17-5.239C2239.356,1008.977,2237.016,1011.296,2237,1014.173z"/>
		<g>
			<g>
				<path style="fill:#F99893;" d="M2263.318,1003.041c0.106,1.677,0.199,3.351,0.209,5.025c0.031,1.673,0.01,3.345-0.078,5.008
					c-0.104,1.661-0.246,3.321-0.577,4.935c-0.316,1.606-0.785,3.213-1.665,4.511c-0.117,0.153-0.216,0.326-0.351,0.461
					c-0.13,0.145-0.24,0.276-0.403,0.449c-0.151,0.163-0.305,0.323-0.438,0.505c-0.143,0.173-0.275,0.354-0.393,0.546
					c-0.491,0.752-0.833,1.627-0.915,2.54c-0.192,1.839,0.632,3.635,1.854,4.87c1.217,1.271,2.787,2.105,4.41,2.608
					c1.635,0.488,3.336,0.671,5.012,0.584c-0.837-0.063-1.667-0.165-2.483-0.32c-0.815-0.162-1.613-0.396-2.38-0.696
					c-1.533-0.585-2.962-1.468-4.025-2.668c-1.056-1.188-1.722-2.75-1.512-4.282c0.086-0.761,0.367-1.493,0.8-2.139
					c0.103-0.165,0.219-0.32,0.345-0.471c0.115-0.157,0.254-0.297,0.389-0.44l0.441-0.482c0.161-0.164,0.278-0.354,0.413-0.536
					c0.504-0.744,0.856-1.555,1.137-2.374c0.281-0.822,0.479-1.66,0.626-2.502c0.293-1.686,0.418-3.381,0.437-5.072
					C2264.216,1009.718,2263.903,1006.351,2263.318,1003.041z"/>
			</g>
		</g>
		<g>
			<g>
				<path style="fill:#07085B;" d="M2274.864,1003.764c2.303-1.361,4.714-2.405,7.183-3.14c2.476-0.711,5.02-1.05,7.543-0.924
					c1.263,0.047,2.516,0.246,3.749,0.536c0.622,0.128,1.225,0.33,1.837,0.51c0.307,0.09,0.6,0.22,0.902,0.324
					c0.302,0.107,0.606,0.209,0.897,0.346c2.37,1.003,4.622,2.357,6.832,3.879c-1.685-2.091-3.796-3.866-6.203-5.189
					c-1.202-0.663-2.482-1.209-3.819-1.58c-1.332-0.383-2.713-0.628-4.104-0.686c-2.781-0.134-5.577,0.369-8.11,1.417
					c-1.272,0.51-2.478,1.164-3.612,1.905C2276.835,1001.919,2275.764,1002.76,2274.864,1003.764z"/>
			</g>
		</g>
		<g>
			<g>
				<path style="fill:#07085B;" d="M2253.939,1004.711c-0.986-0.918-2.13-1.658-3.317-2.311c-1.198-0.636-2.456-1.178-3.771-1.571
					c-2.617-0.814-5.447-1.063-8.204-0.677c-1.38,0.184-2.733,0.552-4.025,1.054c-1.298,0.491-2.523,1.15-3.661,1.919
					c-2.277,1.535-4.22,3.494-5.708,5.728c2.064-1.714,4.183-3.267,6.453-4.48c0.277-0.162,0.571-0.291,0.863-0.425
					c0.292-0.132,0.571-0.287,0.868-0.404c0.594-0.235,1.176-0.491,1.784-0.675c1.202-0.399,2.432-0.712,3.685-0.872
					c2.502-0.354,5.066-0.246,7.596,0.238C2249.027,1002.742,2251.522,1003.563,2253.939,1004.711z"/>
			</g>
		</g>
		<path style="fill:#07085B;" d="M2221.682,963.177c8.628-35.656,55.229-39.013,55.229-39.013
			c72.386,1.746,63.895,65.691,61.987,76.293c-2.11-0.392-4.98-0.199-8.39,1.859c-1.433,0.864-2.583,1.762-3.51,2.652
			c-8.618-2.212-11.833-16.237-16.541-22.851c-6.389-8.975-32.481-3.012-42.763-9.121c-10.281-6.109-11.761-16.204-11.761-16.204
			c-38.212,7.857-35.77,48.591-35.77,48.591c-1.682-0.298-3.729-0.023-3.729-0.023S2213.975,995.03,2221.682,963.177z"/>
		<path style="fill:#FFFFFF;" d="M2250.902,1042.092c1.557,5.349,8.033,9.211,15.648,8.95c7.614-0.262,13.812-4.559,15-10.002
			L2250.902,1042.092z"/>
		<path style="fill:#FFC0BB;" d="M2055.709,1244.813l-48.225-22.363l10.207-25.129c0,0,23.019,7.966,46.605,15.8L2055.709,1244.813z
			"/>
		<path style="fill:#FFC0BB;" d="M2163.668,1954.236l41.574-25.975l36.113,21.631l-12.537,9.031l-43.641,6.379
			c0,0-17.055-2.105-17.807-2.608C2166.618,1962.191,2163.668,1954.236,2163.668,1954.236z"/>
		<path style="fill:#FFC0BB;" d="M2263.962,1577.433c0,0-5.952,143.929-6.504,168.776c-0.551,24.847-13.224,209.269-18.734,225.281
			l-30.856-2.209c0,0-21.047-357.063-14.435-391.849S2263.962,1577.433,2263.962,1577.433z"/>
		<path style="fill:#838CCF;" d="M2163.668,1954.236l-10.534,6.861c-4.882,3.118-2.678,10.692,3.112,10.692h80
			c2.822,0,5.109-2.292,5.109-5.12v-16.777C2188.076,1966.891,2169.674,1961.719,2163.668,1954.236z"/>
		<path style="fill:#FFC0BB;" d="M2359.787,1955.502l37.578-31.479l38.76,16.423l-11.166,10.68l-42.338,12.359
			c0,0-17.182,0.275-17.996-0.118S2359.787,1955.502,2359.787,1955.502z"/>
		<path style="fill:#FFC0BB;" d="M2406.949,1568.441c0,0,14.031,143.367,16.925,168.052c2.895,24.685,15.875,209.084,12.635,225.705
			l-30.865,2.085c0,0-70.277-350.711-68.545-386.077S2406.949,1568.441,2406.949,1568.441z"/>
		<path style="fill:#07085B;" d="M2359.787,1955.502l-9.482,8.254c-4.403,3.764-1.172,10.961,4.562,10.159l79.23-11.075
			c2.794-0.392,4.743-2.978,4.352-5.778l-2.323-16.616C2385.713,1964.655,2366.771,1962.081,2359.787,1955.502z"/>
		<path style="fill:#FFC0BB;" d="M2394.354,1360.646l31.217-34.537l-22.608-23.517l-38.192,49.469c0,0,22.265,59.817,23.595,62.476
			c1.328,2.658,5.815,0,5.815,0c-1.342-10.244-0.714-39.105-0.285-53.737C2394.185,1360.704,2394.354,1360.646,2394.354,1360.646z"
			/>
		<path style="fill:#838CCF;" d="M2215.201,1317.947c0,0-41.232,46.144-44.74,194.158c-3.507,148.016,4.209,201.329,4.209,201.329
			s113.176,27.593,270.777-24.552c0,0-38.816-279.896-95.871-375.3C2349.576,1313.583,2283.09,1273.909,2215.201,1317.947z"/>
		<path style="fill:#FFC0BB;" d="M2024.463,1202.887c-0.19-2.304-6.369-5.323-6.369-5.323c-5.244-2.224-15.904-4.916-25.563-4.537
			c-3.029,0.118-5.065,3.146-3.989,5.979l0,0l5.434,0.234c-0.158,0.163-0.36,0.289-0.611,0.345c-1.472,0.327-3.572,0.8-5.985,1.361
			l2.254,24.404c4.774-1.025,10.976,3.641,20.059,1.454l12.079-3.458c-0.863-1.466-1.659-2.968-2.305-4.538
			c-0.955-2.444-1.716-4.959-2.276-7.514C2016.646,1208.739,2024.679,1205.487,2024.463,1202.887z"/>
		<g>
			<path style="fill:#FF5B7E;" d="M1975.623,1230.777l6.473-1.53c3.229-0.764,6.292-2.315,8.997-4.56l1.474-1.223
				c3.303-2.739,5.557-6.944,6.261-11.681l0.362-2.44c0.368-2.475-0.068-5.023-1.219-7.126l0,0
				c-1.393-2.546-3.691-4.178-6.226-4.421l-7.351-0.707L1975.623,1230.777z M1979.265,1224.981l5.972-22.935l5.004,0.48
				c1.726,0.166,3.29,1.277,4.239,3.011l0,0c0.782,1.431,1.079,3.166,0.829,4.851l-0.247,1.662
				c-0.479,3.225-2.014,6.087-4.263,7.952l-1.002,0.832c-1.843,1.527-3.928,2.584-6.126,3.104L1979.265,1224.981z"/>
			<path style="fill:#FF5B7E;" d="M1918.598,1191.444l0.356-0.052l33.094,0.968l33.448-0.978l0.063,0.041
				c0,0,0.101,0.059,0.102,0.259c0.021,3.457-1.507,37.101-15.437,51.3c0,0-9.539,1.464-18.177,1.276
				c-8.638,0.188-19.506-2.916-19.506-2.916c-13.88-14.147-14.126-45.972-14.107-49.622
				C1918.436,1191.496,1918.598,1191.444,1918.598,1191.444z"/>
			<path style="fill:#E5426E;" d="M1918.435,1191.721c0.001-0.225,0.163-0.276,0.163-0.276l0.356-0.052l33.094,0.968l2.013-0.059
				c-7.072,4.391-13.645,10.852-13.979,19.784c-0.543,14.487,7.889,28.632,20.241,31.59c-2.713,0.383-5.602,0.641-8.275,0.583
				c-8.638,0.188-19.506-2.916-19.506-2.916C1918.662,1227.195,1918.416,1195.371,1918.435,1191.721z"/>
			<path style="fill:#FF5B7E;" d="M1918.437,1191.721c0,4.965,15.097,8.992,33.643,8.992c18.547,0,33.581-4.024,33.581-8.989
				c0-4.964-15.034-8.988-33.581-8.988C1933.533,1182.735,1918.437,1186.756,1918.437,1191.721z"/>
			<path style="fill:#4C2816;" d="M1981.521,1195.959l-10.386,2.801l-8.232,1.232l-11.182,0.279l-10.946-0.56l-7.063-0.896
				l-6.223-1.456l-4.396-1.848c0,0-1.136-1.044-1.965-1.757c4.8-3.402,17.107-5.822,31.493-5.822c14.592,0,27.007,2.491,31.64,5.972
				L1981.521,1195.959z"/>
			<path style="opacity:0.5;fill:#4C2816;" d="M1925.198,1192.685c0.075-0.206,0.221-0.343,0.381-0.387
				c9.073-2.454,17.858-3.337,25.759-3.355v-0.001c0.022,0,0.044,0,0.066,0c0.021,0,0.044,0,0.065,0v0.001
				c7.901,0.019,16.687,0.901,25.76,3.355c0.16,0.044,0.306,0.181,0.38,0.387c0.131,0.358,0.078,0.966-1.164,1.672
				c-3.383,1.166-6.905,1.37-10.364,0.586c-3.624-0.822-8.64-1.644-14.677-1.822c-6.037,0.179-11.054,1-14.678,1.822
				c-3.459,0.784-6.98,0.58-10.363-0.586C1925.121,1193.65,1925.068,1193.043,1925.198,1192.685z"/>
			<path style="fill:#FFFFFF;" d="M1980.141,1191.99c-1.138-0.488-2.307-0.862-3.48-1.207c-1.174-0.341-2.357-0.642-3.545-0.908
				c-1.188-0.266-2.382-0.494-3.579-0.699c-0.598-0.105-1.197-0.195-1.797-0.289c-0.601-0.086-1.2-0.175-1.802-0.249
				c-2.402-0.317-4.816-0.517-7.23-0.656c-2.415-0.136-4.833-0.198-7.25-0.196c-4.834,0.021-9.672,0.301-14.475,0.985
				c-2.4,0.35-4.793,0.788-7.16,1.373c-1.184,0.294-2.361,0.625-3.527,1.004c-1.166,0.38-2.326,0.795-3.447,1.335
				c0.28-0.133,0.566-0.25,0.854-0.363c0.286-0.113,0.575-0.219,0.864-0.323c0.578-0.208,1.16-0.396,1.745-0.575
				c1.17-0.358,2.349-0.668,3.534-0.941c2.369-0.557,4.76-0.97,7.158-1.292c2.399-0.314,4.806-0.55,7.216-0.7
				c2.411-0.149,4.825-0.215,7.238-0.219c4.828-0.021,9.658,0.214,14.462,0.785c0.602,0.067,1.201,0.15,1.801,0.229
				c0.599,0.087,1.198,0.171,1.796,0.27c1.196,0.191,2.39,0.409,3.579,0.658c1.189,0.245,2.374,0.524,3.552,0.845
				c0.588,0.162,1.175,0.332,1.758,0.519S1979.569,1191.756,1980.141,1191.99z"/>
			<path style="fill:#F484A2;" d="M1918.437,1191.721c0,4.965,15.097,8.992,33.643,8.992c18.547,0,33.581-4.024,33.581-8.989
				c0-4.964-15.034-8.988-33.581-8.988C1933.533,1182.735,1918.437,1186.756,1918.437,1191.721z M1919.837,1191.721
				c0-4.599,14.468-8.324,32.241-8.324s32.182,3.729,32.182,8.327s-14.408,8.327-32.182,8.327S1919.837,1196.32,1919.837,1191.721z"
				/>
		</g>
		<path style="fill:#FCB7B4;" d="M2001.44,1203.084c0,1.965-3.694,3.559-8.252,3.559c-4.557,0-8.251-1.594-8.251-3.559
			s3.694-3.559,8.251-3.559C1997.746,1199.525,2001.44,1201.119,2001.44,1203.084z"/>
		<path style="fill:#FCB7B4;" d="M2000.798,1208.71c0,1.965-3.694,3.558-8.251,3.558c-4.558,0-8.252-1.593-8.252-3.558
			c0-1.966,3.694-3.559,8.252-3.559C1997.104,1205.151,2000.798,1206.744,2000.798,1208.71z"/>
		<path style="fill:#FCB7B4;" d="M2000.188,1214.949c0,1.965-3.694,3.558-8.251,3.558c-4.558,0-8.252-1.593-8.252-3.558
			c0-1.966,3.694-3.559,8.252-3.559C1996.494,1211.391,2000.188,1212.983,2000.188,1214.949z"/>
		<path style="fill:#FCB7B4;" d="M1999.782,1221.188c0,1.965-3.694,3.558-8.251,3.558c-4.558,0-8.252-1.593-8.252-3.558
			c0-1.966,3.694-3.559,8.252-3.559C1996.088,1217.63,1999.782,1219.223,1999.782,1221.188z"/>
		<path style="fill:#FF5B7E;" d="M2486.134,1230.963c-10.912-36.79-94.779-132.816-124.086-137.805
			c-29.308-4.989-53.938,4.053-53.938,4.053s-29.931,19.019-55.808,5.611c0,0-6.909-1.156-16.971,0.457l0,0
			c0,0-55.081,48.363-28.86,108.354c0,0,8.106,59.86,8.729,106.314c0,0,11.535,24.631,69.214,23.072
			c57.679-1.56,65.161-27.437,65.161-27.437s6.859-113.486,16.524-131.881c0,0,61.42,49.261,62.667,54.872
			c1.247,5.612-32.113,67.344-43.337,81.062c0,0,7.794,17.29,34.295,23.454C2419.726,1341.09,2497.046,1267.752,2486.134,1230.963z"
			/>
		<path style="fill:#F24C78;" d="M2235.332,1103.279L2235.332,1103.279c-14.962,2.398-36.9,10.927-53.491,38.516
			c-27.747,46.143-56.431,75.449-56.431,75.449l-67.031-7.482c0,0-8.107,25.565-4.054,37.102c0,0,48.949,29.307,77.32,19.953
			c28.372-9.354,74.826-55.184,74.826-55.184C2180.251,1151.643,2235.332,1103.279,2235.332,1103.279z"/>
	</g>
	<g>
		<polygon style="fill:#FFFFFF;" points="2828.4,1634.17 2852.622,1980.346 2840.512,1980.346 2802.16,1637.919 		"/>
		<polygon style="fill:#FFFFFF;" points="2573.996,1634.17 2549.774,1980.346 2561.885,1980.346 2600.236,1637.919 		"/>
		<g>
			<path style="fill:#FEE4CB;" d="M2934.102,1279.061c0,0-193.613-5.736-206.144-4.841c-12.53,0.895-24.116,41.183-24.116,41.183
				s-56.556,209.825-55.428,215.597c1.127,5.771-52.764,140.982-52.764,140.982s46.485-1.236,48.543,0
				c2.057,1.237,179.77-15.252,182.238-16.901c2.468-1.648,11.519-32.566,11.93-34.215c0.411-1.649,13.986-122.021,13.986-122.021
				l6.994-66.369c0,0,26.738-56.942,27.15-57.121c0.411-0.179,25.094-50.059,26.739-52.532s27.15-30.093,27.974-32.566
				C2942.027,1287.782,2934.102,1279.061,2934.102,1279.061z"/>
			<path style="opacity:0.5;fill:#FEE4CB;" d="M2934.102,1279.061c0,0-66.75-1.977-124.402-3.429
				c22.407,13.185,34.97,50.062,25.646,115.661c-7.925,55.748-16.729,116.249-51.833,188.802
				c-18.08,37.368-95.929,16.438-159.735,20.135c-13.747,35.677-28.125,71.752-28.125,71.752s46.485-1.236,48.542,0
				c2.057,1.237,179.77-15.252,182.238-16.901c2.469-1.648,11.518-32.566,11.93-34.215c0.411-1.649,13.986-122.021,13.986-122.021
				l6.994-66.369c0,0,26.738-56.942,27.15-57.121c0.411-0.179,25.094-50.059,26.739-52.532s27.15-30.093,27.974-32.566
				C2942.027,1287.782,2934.102,1279.061,2934.102,1279.061z"/>
			<g>
				<path style="fill:#E8B891;" d="M2560.278,1679.371l-0.001-0.008c-0.411-6.619,4.578-12.326,11.182-12.774
					c20.688-1.404,65.432-4.606,111.449-8.972c88.213-8.369,120.104-15.22,131.52-18.8c3.939-1.236,6.967-4.437,7.975-8.448
					c3.097-12.329,4.911-37.92,6.43-59.328c5.761-81.24,15.262-215.202,98.729-288.752c5.209-4.59,13.226-3.771,17.455,1.737l0,0
					c3.851,5.017,3.192,12.185-1.558,16.355c-76.043,66.773-84.774,189.902-90.621,272.368c-3.336,47.009-5.393,70.083-15.661,80.82
					c-4.952,5.177-14.168,14.813-148.288,27.7c-47.58,4.57-94.416,7.926-115.808,9.378
					C2566.428,1691.101,2560.693,1686.041,2560.278,1679.371z M2820.354,1636.386L2820.354,1636.386L2820.354,1636.386z"/>
			</g>
		</g>
	</g>
	<g>
		<polygon style="fill:#FFFFFF;" points="1165.691,1634.17 1141.47,1980.346 1153.581,1980.346 1191.932,1637.919 		"/>
		<polygon style="fill:#FFFFFF;" points="1420.097,1634.17 1444.318,1980.346 1432.208,1980.346 1393.856,1637.919 		"/>
		<g>
			<path style="fill:#FEE4CB;" d="M1059.991,1279.061c0,0,193.613-5.736,206.143-4.841c12.53,0.895,24.116,41.183,24.116,41.183
				s56.556,209.825,55.429,215.597c-1.127,5.771,52.762,140.982,52.762,140.982s-46.485-1.236-48.542,0
				c-2.057,1.237-179.771-15.252-182.238-16.901c-2.468-1.648-11.519-32.566-11.93-34.215
				c-0.412-1.649-13.987-122.021-13.987-122.021l-6.994-66.369c0,0-26.739-56.942-27.15-57.121
				c-0.412-0.179-25.094-50.059-26.739-52.532s-27.151-30.093-27.974-32.566S1059.991,1279.061,1059.991,1279.061z"/>
			<path style="opacity:0.5;fill:#FEE4CB;" d="M1059.991,1279.061c0,0,66.75-1.977,124.402-3.429
				c-22.407,13.185-34.97,50.062-25.645,115.661c7.924,55.748,16.729,116.249,51.833,188.802
				c18.08,37.368,95.929,16.438,159.735,20.135c13.748,35.677,28.125,71.752,28.125,71.752s-46.485-1.236-48.542,0
				c-2.057,1.237-179.771-15.252-182.238-16.901c-2.469-1.648-11.519-32.566-11.93-34.215
				c-0.411-1.649-13.986-122.021-13.986-122.021l-6.994-66.369c0,0-26.739-56.942-27.151-57.121
				c-0.411-0.179-25.093-50.059-26.739-52.532s-27.151-30.093-27.974-32.566S1059.991,1279.061,1059.991,1279.061z"/>
			<g>
				<path style="fill:#E8B891;" d="M1421.011,1690.648c-21.391-1.452-68.228-4.808-115.808-9.378
					c-134.121-12.888-143.336-22.523-148.288-27.7c-10.268-10.737-12.326-33.812-15.661-80.82
					c-5.847-82.466-14.579-205.595-90.621-272.368c-4.75-4.171-5.409-11.339-1.558-16.355l0,0
					c4.229-5.509,12.246-6.327,17.455-1.737c83.467,73.55,92.969,207.512,98.729,288.752c1.519,21.408,3.333,46.999,6.429,59.328
					c1.008,4.012,4.036,7.212,7.976,8.448c11.415,3.58,43.306,10.431,131.518,18.8c46.018,4.365,90.762,7.567,111.45,8.972
					c6.604,0.448,11.593,6.155,11.181,12.774v0.008C1433.399,1686.041,1427.664,1691.101,1421.011,1690.648z M1173.739,1636.386
					L1173.739,1636.386L1173.739,1636.386z"/>
			</g>
		</g>
	</g>
	<g>
		<path style="fill:#88C7FF;" d="M3093.553,1715.079c-1.46-12.87-3.194-26.033-9.181-37.52
			c-7.279-13.966-20.066-24.042-31.238-35.142c-20.875-20.739-36.939-46.291-46.581-74.093
			c-7.455-21.497-11.172-44.401-21.446-64.703c-6.273-12.396-14.829-23.479-21.954-35.405
			c-13.547-22.673-22.128-48.661-36.851-70.241c-4.024-5.898-13.336-2.813-13.024,4.319c0.982,22.479,9.499,44.654,24.178,61.739
			c5.625,6.547,12.149,12.449,16.435,19.941c7.779,13.601,7.07,30.195,7.982,45.838c1.712,29.397,10.015,58.393,24.12,84.242
			c14.984,27.459,36.613,51.912,44.625,82.149c6.004,22.66,4.219,48.078,17.02,67.717c1.387,2.127,2.975,4.266,3.314,6.782
			c0.191,1.415-0.031,2.849-0.252,4.258c-0.286,1.825-0.573,3.649-0.859,5.474c-2.913,18.546-5.921,42.144,10.049,56.024
			c11.067,9.619,25.313,9.835,33.262-2.943c8.004-12.866,7.294-31.696,6.699-46.176
			C3098.86,1763.229,3096.272,1739.049,3093.553,1715.079z"/>
		<path style="fill:#B0D6FF;" d="M3122.317,1700.161c-6.213-21.468-15.856-41.915-20.688-63.735
			c-4.688-21.166-4.724-43.048-4.739-64.726c-0.017-23.755-0.033-47.509-0.051-71.264c-0.011-14.788-0.027-29.657-2.477-44.242
			c-5.27-31.38-21.612-60.396-24.381-92.096c-1.197-13.708,0.193-27.563-1.317-41.239c-0.863-7.813-2.872-15.788-6.496-22.72
			c-3.897-7.455-14.666-7.126-18.197,0.51c-7.938,17.163-12.973,35.717-9.766,54.105c1.924,11.031,6.711,21.319,10.286,31.931
			c15.919,47.256,7.468,99.567,19.784,147.888c3.719,14.585,9.34,28.889,9.994,43.927c1.565,35.99-25.371,68.866-22.899,104.806
			c2.025,29.466,23.255,53.853,32.165,82.012c4.988,15.765,6.056,32.591,11.4,48.238c4.151,12.157,13.807,26.921,28.806,23.23
			c14.237-3.503,9.936-15.101,9.3-26.179C3130.89,1773.133,3132.914,1736.772,3122.317,1700.161z"/>
		<path style="fill:#88C7FF;" d="M3154.908,1719.835c-0.626-11.155-2.514-22.372-0.95-33.436c1.32-9.343,5.047-18.147,7.709-27.2
			c4.987-16.965,6.224-34.77,7.431-52.41c2.195-32.066,4.392-64.133,6.587-96.199c3.413-49.846,6.843-99.833,16.183-148.915
			c2.593-13.628,5.505-28.394-0.633-40.834c-1.294-2.622-3.84-5.404-6.631-4.531c-1.988,0.622-2.964,2.807-3.684,4.762
			c-20.415,55.365-28.132,114.973-50.918,169.404c-5.459,13.04-11.808,25.867-14.634,39.718c-3.394,16.632-1.53,33.811-1.092,50.778
			c0.628,24.337-1.746,48.857-8.48,72.251c-3.522,12.24-8.24,24.204-10.171,36.794c-2.406,15.698-0.386,31.688,1.121,47.498
			c2.896,30.394,3.878,60.971,2.938,91.489c-0.554,17.941,14.623,17.472,24.677,6.448c7.031-7.708,6.966-16.171,9.374-25.767
			C3141.638,1778.183,3156.827,1753.991,3154.908,1719.835z"/>
		<path style="fill:#B0D6FF;" d="M3060.088,1768.486c-13.42-21.519-40.155-33.752-48.732-57.618
			c-2.183-6.073-3.035-12.604-5.701-18.481c-5.924-13.052-19.388-20.429-32.625-26.434c-1.838-0.834-3.928,0.495-3.955,2.514l0,0
			c-0.044,3.209,1.48,6.271,4.145,8.061c10.197,6.851,17.947,17.323,21.397,29.124c4.089,13.986,2.315,29.319,7.397,42.977
			c4.266,11.465,13.05,20.837,17.176,32.354c3.771,10.527,3.375,22.029,5.148,33.071c1.773,11.041,6.688,22.758,16.848,27.43
			C3077.945,1858.387,3068.758,1782.388,3060.088,1768.486z"/>
		<path style="fill:#88C7FF;" d="M3212.983,1761.385c-0.572,10.403,1.021,21.311-3.058,30.897
			c-2.609,6.134-7.305,11.094-11.158,16.533c-13.532,19.101-18.439,46.164-39.232,56.916c-1.372,0.71-2.902,1.345-4.421,1.063
			c-2.131-0.396-3.527-2.446-4.384-4.437c-5.097-11.853,0.623-25.205,4.01-37.653c0.593-2.179,1.09-4.606,0.049-6.609
			c-1.145-2.203-3.753-3.159-5.535-4.888c-3.552-3.448-3.218-9.154-2.513-14.055c1.763-12.243,4.241-24.383,7.417-36.338
			c1.801-6.779,3.881-13.616,7.795-19.438c4.309-6.406,10.566-11.189,16.425-16.219c25.891-22.227,45.724-51.442,56.825-83.709
			c2.402-6.984,4.545-14.359,9.51-19.83c4.963-5.47,13.813-8.286,19.857-4.041c4.302,3.021-13.317,31.302-15.371,34.693
			c-5.869,9.69-5.948,18.123-9.266,28.886C3231.805,1709.527,3214.539,1733.13,3212.983,1761.385z"/>
		<path style="fill:#B0D6FF;" d="M3192.49,1773.415c3.846-9.925,7.725-19.979,8.992-30.546c1.409-11.748-0.46-23.763,1.551-35.423
			c2.585-14.989,11.344-28.175,15.679-42.755c3.131-10.529,3.899-21.592,5.78-32.415c5.378-30.948,19.959-61.189,15.773-92.321
			c-0.91-6.771-3.973-14.664-10.707-15.819c-6.096-1.045-11.646,4.518-13.232,10.496c-1.585,5.979-0.402,12.284,0.033,18.454
			c1.214,17.206-3.705,34.783-13.675,48.859c-9.578,13.524-23.475,23.708-32.094,37.862c-10.572,17.363-12.011,38.558-17.405,58.157
			c-10.729,38.976-37.637,72.977-42.542,113.104c-1.952,15.967,1.804,35.377,16.57,41.755
			C3169.924,1871.273,3182.816,1798.383,3192.49,1773.415z"/>
		<path style="fill:#FFFFFF;" d="M3117.829,1802.74h-6.831h-91.184c-6.701,0-11.646,6.257-10.096,12.776l35.729,150.353
			c1.111,4.678,5.289,7.979,10.097,7.979h55.453h6.831h55.454c4.807,0,8.984-3.301,10.097-7.979l35.729-150.353
			c1.549-6.52-3.395-12.776-10.096-12.776H3117.829z"/>
		<path style="opacity:0.3;fill:#C9EAFD;" d="M3028.321,1802.74h-8.507c-6.701,0-11.646,6.257-10.096,12.776l35.729,150.353
			c1.111,4.677,5.289,7.979,10.097,7.979h55.453h6.831h55.454c4.807,0,8.984-3.302,10.097-7.979l1.322-5.565
			C3117.798,1922.862,3052.543,1870.726,3028.321,1802.74z"/>
	</g>
	<path style="fill:#142666;" d="M2625.763,124.325v137.482c-9.261,1.447-16.655,13.711-17.162,28.898
		c-29.393,12.863-51.349,55.877-51.962,107.224l138.931,1.658c0.612-51.347-20.311-94.874-49.388-108.434
		c-0.045-4.669-0.748-9.075-1.966-12.991c-2.84-8.172-7.989-13.101-7.989-13.101c-0.832-0.701-1.705-1.294-2.607-1.789V128.086
		C2631.009,126.821,2628.394,125.563,2625.763,124.325z"/>
	<path style="fill:#142666;" d="M1492.713,277.353v246.979c-8.125,2.984-14.331,14.411-14.793,28.277
		c-29.393,12.863-51.349,55.878-51.962,107.225l138.931,1.658c0.613-51.347-20.311-94.873-49.388-108.434
		c-0.044-4.669-0.748-9.075-1.966-12.992c-2.84-8.172-7.989-13.1-7.989-13.1c-1.542-1.299-3.213-2.256-4.976-2.82V275.045
		C1497.949,275.818,1495.323,276.595,1492.713,277.353z"/>
	<path style="fill:#142666;" d="M1913.851,322.892c-0.045-4.669-0.749-9.075-1.966-12.991c-2.84-8.173-7.989-13.101-7.989-13.101
		c-1.892-1.593-3.976-2.68-6.188-3.146V120.691c-2.63,1.084-5.248,2.182-7.857,3.29v170.695
		c-7.522,3.627-13.142,14.599-13.581,27.768c-29.394,12.862-51.349,55.878-51.962,107.224l138.931,1.658
		C1963.851,379.979,1942.928,336.453,1913.851,322.892z"/>
	<path style="fill:#142666;" d="M2395.978,615.888c0.612-51.347-20.311-94.874-49.388-108.434
		c-0.044-4.669-0.748-9.075-1.966-12.992c-2.84-8.172-7.989-13.1-7.989-13.1c-1.891-1.594-3.976-2.681-6.188-3.145V50.851
		c-2.619-0.16-5.238-0.309-7.857-0.447v428.833c-7.522,3.628-13.141,14.599-13.581,27.768
		c-29.393,12.863-51.349,55.878-51.962,107.225L2395.978,615.888z"/>
	<g>
		<path style="fill:#FFC0BB;" d="M2644.745,1204.814v48.057c0,2.67-1.337,5.104-3.45,6.236c-6.428,3.441-20.797,9.084-34.211,0.092
			c-1.811-1.214-2.879-3.49-2.879-5.89v-43.406L2644.745,1204.814z"/>
		<path style="fill:#F99893;" d="M2644.745,1237.164v-22.557l-40.54,4.46v19.137
			C2611.811,1240.512,2625.968,1242.815,2644.745,1237.164z"/>
		<path style="fill:#FFC0BB;" d="M2590.982,1251.163c1.46,0.964,64.651,0,64.651,0s6.966,6.894,5.805,8.054
			c-1.161,1.161-25.222,17.705-25.222,17.705l-32.012-4.354L2590.982,1251.163z"/>
		<path style="fill:#FFC0BB;" d="M2408.783,1275.979c0,0-24.963,162.608,10.702,195.913
			c35.664,33.306,102.928-55.176,102.928-55.176l14.367-57.801l-62.823,19.666l-22.726,28.007l-11.755-150.854L2408.783,1275.979z"
			/>
		<g>
			<path style="fill:#FEB546;" d="M2432.254,1222.901l0.332,0.288l18.47,16.064c2.009,1.747,2.122,4.828,0.246,6.717l-41.196,41.491
				c-1.371,1.381-3.461,1.755-5.221,0.925c-4.029-1.899-11.522-5.887-18.726-12.151s-12.19-13.133-14.631-16.859
				c-1.065-1.629-0.985-3.75,0.192-5.299l35.378-46.552c1.61-2.119,4.677-2.435,6.686-0.688L2432.254,1222.901z"/>
			<path style="fill:#333333;" d="M2414.387,1197.029c2.023-1.352,4.277-1.454,5.652-0.257l19.894,17.301l0.331,0.288l19.893,17.302
				c1.377,1.196,1.588,3.441,0.529,5.634l-3.524,7.305c-0.989,2.05-3.655,2.598-5.372,1.104l-22.083-19.206l-0.331-0.288
				l-22.082-19.205c-1.717-1.493-1.544-4.211,0.348-5.474L2414.387,1197.029z"/>
			<path style="fill:#333333;" d="M2422.853,1193.598c0.716-0.823,1.963-0.91,2.785-0.194l18.374,15.98l0.331,0.288l18.374,15.979
				c0.822,0.716,0.909,1.963,0.193,2.786l-3.887,4.469l-18.935-18.679l-21.123-16.161L2422.853,1193.598z"/>
			<path style="fill:#E87B50;" d="M2445.271,1254.88l-19.084,18.55c-0.324,0.315-0.809,0.396-1.216,0.199
				c-2.706-1.309-13.056-6.586-23.168-15.381c-10.113-8.796-16.774-18.313-18.445-20.812c-0.251-0.376-0.238-0.867,0.028-1.232
				l15.725-21.472c0.425-0.581,1.289-0.593,1.723-0.019c8.017,10.608,32.6,31.989,44.217,38.457
				C2445.68,1253.521,2445.788,1254.378,2445.271,1254.88z"/>
			<path style="fill:#F3FDFF;" d="M2407.17,1239.596c-4.595,3.588-5.411,10.222-1.823,14.816s10.222,5.411,14.816,1.823
				s5.411-10.222,1.823-14.816S2411.766,1236.008,2407.17,1239.596z"/>
		</g>
		<polygon style="fill:#FFC0BB;" points="2419.217,1880.953 2412.773,1932.788 2378.088,1935.483 2378.625,1887.415 		"/>
		<g>
			<path style="fill:#FFFFFF;" d="M2325.384,1973.426l94.757,0.641c2.071,0.014,3.735-1.619,3.718-3.648l-0.024-2.733
				c-0.018-2.028-1.711-3.685-3.782-3.698l-94.757-0.641c-2.071-0.015-3.736,1.619-3.719,3.647l0.024,2.734
				C2321.619,1971.756,2323.313,1973.412,2325.384,1973.426z"/>
			<path style="fill:#EA426E;" d="M2418.853,1933.357l3.634,28.058c0.448,3.459-1.499,6.585-4.092,6.567l-90.11-0.609
				c-2.341-0.016-4.667-1.462-5.92-4.16c-1.284-2.768-1.573-6.924,2.411-12.482c7.969-11.115,34.453-13.661,47.334-23.109
				l41.975,0.284C2416.429,1927.921,2418.447,1930.229,2418.853,1933.357z"/>
			<g>
				<path style="fill:#FFFFFF;" d="M2378.625,1943.943L2378.625,1943.943c0.647-0.388,0.876-1.461,0.492-2.281
					c-1.803-3.853-7.415-13.241-18.65-11.396c-0.649,0.106-1.083,0.949-0.965,1.822l0.004,0.028
					c0.115,0.845,0.705,1.401,1.334,1.301c10.069-1.617,14.844,6.657,16.303,9.886
					C2377.454,1943.991,2378.086,1944.266,2378.625,1943.943z"/>
			</g>
			<g>
				<path style="fill:#FFFFFF;" d="M2369.298,1947.488L2369.298,1947.488c0.648-0.388,0.876-1.461,0.493-2.281
					c-1.804-3.853-7.416-13.241-18.651-11.396c-0.649,0.106-1.082,0.949-0.964,1.822l0.004,0.028
					c0.114,0.845,0.705,1.402,1.333,1.301c10.069-1.617,14.844,6.657,16.304,9.887
					C2368.127,1947.537,2368.759,1947.811,2369.298,1947.488z"/>
			</g>
			<g>
				<path style="fill:#FFFFFF;" d="M2360.623,1950.797L2360.623,1950.797c0.648-0.389,0.877-1.461,0.493-2.281
					c-1.803-3.853-7.415-13.242-18.651-11.396c-0.648,0.106-1.082,0.948-0.964,1.822l0.004,0.027
					c0.114,0.846,0.705,1.402,1.333,1.302c10.069-1.617,14.844,6.656,16.304,9.886
					C2359.453,1950.845,2360.085,1951.119,2360.623,1950.797z"/>
			</g>
			<path style="opacity:0.3;fill:#E87B50;" d="M2394.344,1967.819c6.9-22.599,19.117-25.019,25.806-24.449l2.337,18.045
				c0.448,3.459-1.499,6.585-4.092,6.567L2394.344,1967.819z"/>
		</g>
		<polygon style="fill:#FFC0BB;" points="2472.463,1882.058 2457.129,1932.076 2421.83,1932.32 2427.979,1895.806 		"/>
		<g>
			<path style="fill:#FFFFFF;" d="M2371.127,1974.354l94.757,0.641c2.071,0.014,3.735-1.62,3.718-3.648l-0.023-2.734
				c-0.018-2.028-1.712-3.685-3.783-3.698l-94.757-0.641c-2.071-0.014-3.735,1.619-3.718,3.648l0.023,2.733
				C2367.362,1972.684,2369.056,1974.339,2371.127,1974.354z"/>
			<path style="fill:#F76390;" d="M2464.596,1934.284l3.634,28.058c0.448,3.46-1.499,6.585-4.092,6.567l-90.11-0.609
				c-2.341-0.016-4.667-1.462-5.92-4.16c-1.285-2.767-1.573-6.924,2.412-12.481c7.969-11.116,34.452-13.662,47.333-23.109
				l41.976,0.283C2462.172,1928.848,2464.19,1931.156,2464.596,1934.284z"/>
			<g>
				<path style="fill:#FFFFFF;" d="M2424.368,1944.87L2424.368,1944.87c0.647-0.388,0.876-1.46,0.492-2.281
					c-1.803-3.853-7.415-13.241-18.651-11.396c-0.648,0.106-1.082,0.949-0.963,1.822l0.004,0.028
					c0.114,0.845,0.704,1.402,1.333,1.301c10.069-1.617,14.844,6.657,16.304,9.887
					C2423.197,1944.919,2423.829,1945.192,2424.368,1944.87z"/>
			</g>
			<g>
				<path style="fill:#FFFFFF;" d="M2415.041,1948.416L2415.041,1948.416c0.648-0.389,0.877-1.461,0.492-2.281
					c-1.803-3.853-7.414-13.242-18.65-11.397c-0.649,0.107-1.082,0.949-0.964,1.822l0.004,0.028
					c0.114,0.846,0.704,1.402,1.333,1.302c10.069-1.617,14.844,6.656,16.304,9.886
					C2413.87,1948.464,2414.502,1948.738,2415.041,1948.416z"/>
			</g>
			<g>
				<path style="fill:#FFFFFF;" d="M2406.367,1951.724L2406.367,1951.724c0.647-0.388,0.876-1.461,0.492-2.281
					c-1.803-3.853-7.415-13.241-18.651-11.396c-0.649,0.106-1.082,0.949-0.964,1.822l0.004,0.028
					c0.115,0.845,0.705,1.402,1.334,1.301c10.068-1.617,14.843,6.657,16.303,9.886
					C2405.196,1951.772,2405.828,1952.046,2406.367,1951.724z"/>
			</g>
			<path style="opacity:0.3;fill:#E87B50;" d="M2440.088,1968.746c6.898-22.599,19.115-25.018,25.805-24.449l2.337,18.045
				c0.448,3.46-1.499,6.585-4.092,6.567L2440.088,1968.746z"/>
		</g>
		<path style="fill:#06062D;" d="M2583.972,1548.143c0,0-175.639,19.338-209.132,51.036s-11.028,270.285-5.446,292.162
			c0,0,30.565,14.566,54.756,7.107c24.188-7.458,14.886-111.876,14.886-111.876s-2.791-99.757,0.93-113.742
			c3.722-13.984,54.892-24.239,54.892-24.239s123.035-64.584,118.383-64.584C2608.588,1584.007,2583.972,1548.143,2583.972,1548.143
			z"/>
		<path style="fill:#09083C;" d="M2778.403,1589.67c0.74-45.165-12.27-83.998-12.27-83.998l-78.837,68.065l-0.694-6.077
			c0,0-197.328-23.488-224.309,66.014c-26.98,89.501-47.448,266.64-47.448,266.64s26.05,15.849,61.404,0
			c0,0,50.004-190.19,68.729-208.837c11.938-11.889,86.132-25.573,129.524-26.221
			C2719.325,1664.587,2777.526,1643.18,2778.403,1589.67z"/>
		<path style="fill:#29589B;" d="M2590.982,1251.163c0,0-44.189,8.054-66.828,33.306c-22.639,25.251-53.549,87.942-53.549,87.942
			s23.256,46.536,48.017,50.503l55.164-53.55L2590.982,1251.163z"/>
		<path style="fill:#3660AC;" d="M2590.982,1251.163c0,0-41.142,33.958-47.019,64.651c-5.878,30.693,4.571,241.626,4.571,241.626
			s31.346,33.958,125.384,22.856c0,0,88.161-80.978,90.12-82.937s-39.836-80.516-39.836-80.516s47.672-12.216,59.428-27.89
			c0,0-14.367-144.976-127.997-137.792C2655.634,1251.163,2627.553,1275.979,2590.982,1251.163z"/>
		<path style="fill:#FFC0BB;" d="M2783.631,1388.955c0,0-7.837,12.679-59.428,27.89c0,0,16.326,55.047,15.021,67.455
			c-1.261,11.974-101.021,120.622-108.007,128.217l-0.689-0.342c0,0-53.435,16.935-54.074,19.151
			c-0.609,2.113,0.844,3.339,20.406,4.405c1.271,0.069,1.969,1.517,1.212,2.538c-5.856,7.917-24.124,32.946-22.445,34.89
			c1.996,2.312,18.865-19.656,21.567-18.785c2.701,0.871-14.295,21.884-11.762,24.011c2.533,2.128,17.387-17.551,18.769-17.026
			c1.381,0.525-10.832,20.896-10.095,23.04c0.737,2.144,16.426-18.021,18.283-17.858c1.857,0.161-4.335,17.667-2.892,18.37
			c1.443,0.704,2.288,1.413,27.539-34.018l9.345-14.373l0.086-1.051c9.998-5.38,136.453-74.324,150.877-127.007
			C2812.364,1453.606,2783.631,1388.955,2783.631,1388.955z"/>
		<path style="fill:#FFC0BB;" d="M2406.142,1209.343c4.867,4.766,6.519,10.973,3.688,13.864c-2.83,2.891-9.071,1.371-13.939-3.395
			c-4.867-4.766-6.519-10.973-3.688-13.864C2395.033,1203.058,2401.273,1204.577,2406.142,1209.343z"/>
		<path style="fill:#FFC0BB;" d="M2398.738,1216.904c4.868,4.766,6.52,10.973,3.689,13.863c-2.831,2.892-9.071,1.372-13.939-3.394
			s-6.52-10.974-3.688-13.864C2387.63,1210.619,2393.871,1212.139,2398.738,1216.904z"/>
		<path style="fill:#FFC0BB;" d="M2391.336,1224.466c4.867,4.766,6.519,10.973,3.688,13.863c-2.831,2.892-9.071,1.372-13.939-3.394
			c-4.867-4.767-6.519-10.974-3.688-13.864C2380.227,1218.18,2386.468,1219.699,2391.336,1224.466z"/>
		<path style="fill:#FFC0BB;" d="M2383.933,1232.027c4.868,4.766,6.519,10.973,3.688,13.863c-2.83,2.892-9.071,1.371-13.939-3.395
			c-4.867-4.766-6.519-10.973-3.688-13.863C2372.824,1225.741,2379.064,1227.261,2383.933,1232.027z"/>
		<path style="fill:#FFFFFF;" d="M2594.963,1196.393c0.863,6.188,6.369,11.185,13.341,11.641s13.07-3.781,14.719-9.805
			L2594.963,1196.393z"/>
		<path style="fill:#07085B;" d="M2683.021,1170.689c0,0,14.617-52.35-13.747-73.536c-28.364-21.186-59.453-20.428-81.089-9.537
			c-21.636,10.89-36.106,51.706-27.69,75.807l71.067-19.32L2683.021,1170.689z"/>
		<path style="fill:#F99893;" d="M2574.489,1170.147c2.608,6.779,0.335,13.97-5.077,16.061s-11.913-1.71-14.521-8.489
			c-2.607-6.779-0.335-13.97,5.077-16.061S2571.881,1163.368,2574.489,1170.147z"/>
		<path style="fill:#FFC0BB;" d="M2575.666,1209.536c-1.615-2.934-2.971-6.038-4.04-9.281c-3.05-8.714-4.497-17.933-5.121-25.961
			c-0.134-1.723-0.367-3.434-0.632-5.141c-1.071-6.895-0.906-14.179,0.846-21.641c5.641-24.006,26.752-41.77,51.326-43.124
			c33.105-1.824,59.937,24.847,59.322,57.18c3.545-1.887,7.493-2.262,10.932-0.644c6.599,3.106,8.806,12.323,4.932,20.588
			s-12.363,12.446-18.961,9.341c-0.916-0.432-1.738-0.991-2.48-1.639c-3.322,27.458-26.222,48.265-53.193,47.302
			c-13.189-0.471-25.035-6.072-33.863-14.897c-0.592-0.516-1.212-1.118-1.861-1.818
			C2580.017,1216.729,2577.649,1213.248,2575.666,1209.536z"/>
		<path style="fill:#F99893;" d="M2608.732,1159.705c-0.372,3.2-0.654,6.33-1.073,9.385c-0.447,2.984-1.037,6.165-2.412,8.181
			l-0.268,0.317c-0.101,0.119-0.128,0.184-0.332,0.396c-0.317,0.378-0.69,0.688-0.944,1.138c-0.556,0.833-0.976,1.824-1.077,2.872
			c-0.248,2.117,0.714,4.109,2.013,5.387c2.656,2.644,6.338,3.179,9.464,2.675c-3.08-0.812-5.987-2.137-7.562-4.326
			c-0.724-1.083-1.166-2.264-0.891-3.312c0.103-0.521,0.323-1.021,0.671-1.477c0.126-0.249,0.396-0.438,0.576-0.668l0.444-0.498
			l0.498-0.585c1.144-1.629,1.606-3.337,1.936-4.996c0.295-1.671,0.406-3.307,0.386-4.94
			C2610.116,1166,2609.689,1162.795,2608.732,1159.705z"/>
		<path style="fill:#333333;" d="M2626.925,1165.481c-0.097,2.708,2.017,4.981,4.718,5.077c2.703,0.097,4.971-2.02,5.067-4.728
			s-2.017-4.981-4.718-5.078C2629.289,1160.657,2627.021,1162.773,2626.925,1165.481z"/>
		<path style="fill:#333333;" d="M2584.811,1166.742c-0.096,2.708,2.016,4.981,4.719,5.078c2.702,0.096,4.971-2.021,5.066-4.729
			c0.096-2.708-2.016-4.981-4.719-5.077C2587.176,1161.918,2584.906,1164.035,2584.811,1166.742z"/>
		<path style="fill:#07085B;" d="M2621.71,1153.934c2.547-0.564,4.933-0.957,7.276-1.125c2.338-0.166,4.605-0.041,6.789,0.41
			c2.167,0.477,4.334,1.131,6.375,2.271c1.097,0.444,2.023,1.194,3.122,1.765c1.053,0.64,2.014,1.421,3.198,2.063
			c-0.521-1.186-1.146-2.354-1.897-3.44c-0.844-0.997-1.639-2.11-2.731-2.907c-2.01-1.813-4.629-2.975-7.32-3.54
			c-2.709-0.556-5.539-0.387-8.105,0.405C2625.863,1150.646,2623.477,1151.971,2621.71,1153.934z"/>
		<path style="fill:#07085B;" d="M2600.017,1154.579c-1.826-1.907-4.252-3.157-6.829-3.891c-2.588-0.713-5.422-0.795-8.113-0.156
			c-2.672,0.647-5.255,1.89-7.209,3.763c-1.067,0.83-1.828,1.967-2.642,2.989c-0.718,1.109-1.308,2.297-1.791,3.497
			c1.165-0.678,2.101-1.488,3.134-2.159c1.081-0.604,1.984-1.382,3.066-1.859c2.006-1.203,4.151-1.923,6.303-2.466
			c2.169-0.518,4.432-0.713,6.773-0.619C2595.057,1153.774,2597.453,1154.094,2600.017,1154.579z"/>
		<path style="fill:#07085B;" d="M2676.525,1162.293c3.338-2.649,5.797-2.334,5.797-2.334l-0.716-17.171l-4.857-10.537
			c0,0-19.581-28.64-20.282-29.359c-0.702-0.72-16.174-10.379-17.13-10.882c-0.956-0.502-23.32,1.891-23.32,1.891
			s-38.728-9.701-33.021,11.061c5.705,20.763,33.772,32.738,35.277,31.893c-4.436-4.79-4.347-17.847-4.347-17.847
			C2633.18,1141.84,2670.68,1159.61,2676.525,1162.293z"/>
		<path style="fill:#FFFFFF;" d="M2598.854,1198.173c1.64,6.028,7.732,10.289,14.706,9.86s12.487-5.403,13.361-11.587
			L2598.854,1198.173z"/>
	</g>
	<g>
		<polygon style="fill:#FFC0BB;" points="1589.937,1886.255 1595.879,1934.062 1627.869,1936.547 1627.373,1892.214 		"/>
		<g>
			<path style="fill:#FFFFFF;" d="M1676.477,1971.541l-87.393,0.591c-1.91,0.013-3.445-1.493-3.429-3.364l0.022-2.521
				c0.016-1.871,1.579-3.398,3.489-3.412l87.393-0.59c1.911-0.014,3.446,1.493,3.429,3.364l-0.022,2.521
				C1679.949,1970.001,1678.387,1971.528,1676.477,1971.541z"/>
			<path style="fill:#F9A435;" d="M1590.272,1934.586l-3.352,25.877c-0.414,3.19,1.383,6.073,3.774,6.058l83.107-0.563
				c2.159-0.015,4.305-1.348,5.46-3.837c1.185-2.552,1.451-6.386-2.224-11.512c-7.35-10.252-31.775-12.6-43.655-21.313
				l-38.712,0.262C1592.508,1929.572,1590.646,1931.701,1590.272,1934.586z"/>
			<g>
				<path style="fill:#FFFFFF;" d="M1627.373,1944.35L1627.373,1944.35c-0.597-0.357-0.808-1.348-0.454-2.104
					c1.663-3.553,6.839-12.212,17.201-10.511c0.599,0.099,0.999,0.876,0.889,1.681l-0.004,0.026c-0.105,0.779-0.65,1.293-1.229,1.2
					c-9.287-1.492-13.69,6.139-15.036,9.117C1628.453,1944.395,1627.87,1944.646,1627.373,1944.35z"/>
			</g>
			<g>
				<path style="fill:#FFFFFF;" d="M1635.976,1947.619L1635.976,1947.619c-0.598-0.357-0.809-1.348-0.455-2.104
					c1.663-3.554,6.839-12.213,17.202-10.512c0.599,0.099,0.998,0.876,0.889,1.682l-0.003,0.025c-0.106,0.779-0.65,1.293-1.23,1.2
					c-9.287-1.491-13.69,6.14-15.036,9.117C1637.055,1947.664,1636.472,1947.917,1635.976,1947.619z"/>
			</g>
			<g>
				<path style="fill:#FFFFFF;" d="M1643.976,1950.67L1643.976,1950.67c-0.598-0.357-0.808-1.348-0.454-2.104
					c1.663-3.554,6.839-12.213,17.202-10.512c0.598,0.099,0.998,0.876,0.889,1.682l-0.004,0.025c-0.105,0.779-0.65,1.293-1.229,1.2
					c-9.287-1.491-13.69,6.14-15.036,9.118C1645.056,1950.715,1644.473,1950.968,1643.976,1950.67z"/>
			</g>
			<path style="opacity:0.3;fill:#E87B50;" d="M1612.875,1966.37c-6.363-20.843-17.63-23.074-23.799-22.55l-2.155,16.643
				c-0.414,3.19,1.383,6.073,3.774,6.058L1612.875,1966.37z"/>
		</g>
		<polygon style="fill:#FFC0BB;" points="1540.828,1887.273 1554.97,1933.405 1587.526,1933.63 1581.856,1899.953 		"/>
		<g>
			<path style="fill:#FFFFFF;" d="M1634.289,1972.396l-87.393,0.59c-1.911,0.014-3.446-1.493-3.429-3.364l0.022-2.521
				c0.016-1.871,1.578-3.398,3.488-3.411l87.393-0.591c1.91-0.013,3.445,1.493,3.429,3.364l-0.022,2.521
				C1637.761,1970.855,1636.199,1972.383,1634.289,1972.396z"/>
			<path style="fill:#FEB546;" d="M1548.084,1935.441l-3.352,25.877c-0.413,3.19,1.383,6.073,3.774,6.057l83.107-0.562
				c2.159-0.015,4.304-1.349,5.459-3.837c1.185-2.553,1.451-6.386-2.224-11.512c-7.35-10.252-31.775-12.6-43.655-21.313
				l-38.713,0.262C1550.319,1930.428,1548.458,1932.557,1548.084,1935.441z"/>
			<g>
				<path style="fill:#FFFFFF;" d="M1585.185,1945.205L1585.185,1945.205c-0.598-0.358-0.808-1.348-0.454-2.104
					c1.663-3.554,6.839-12.212,17.202-10.511c0.599,0.099,0.998,0.875,0.889,1.681l-0.003,0.026c-0.105,0.779-0.65,1.293-1.23,1.199
					c-9.287-1.491-13.69,6.14-15.036,9.118C1586.265,1945.249,1585.682,1945.502,1585.185,1945.205z"/>
			</g>
			<g>
				<path style="fill:#FFFFFF;" d="M1593.787,1948.475L1593.787,1948.475c-0.598-0.358-0.808-1.348-0.454-2.104
					c1.663-3.553,6.839-12.212,17.201-10.511c0.599,0.099,0.999,0.875,0.889,1.681l-0.003,0.026
					c-0.105,0.779-0.65,1.293-1.229,1.199c-9.287-1.491-13.69,6.14-15.037,9.118
					C1594.867,1948.52,1594.284,1948.771,1593.787,1948.475z"/>
			</g>
			<g>
				<path style="fill:#FFFFFF;" d="M1601.788,1951.525L1601.788,1951.525c-0.598-0.357-0.808-1.348-0.454-2.104
					c1.663-3.553,6.839-12.212,17.202-10.511c0.598,0.099,0.998,0.875,0.889,1.681l-0.003,0.026c-0.106,0.779-0.65,1.293-1.23,1.2
					c-9.287-1.492-13.69,6.14-15.036,9.117C1602.867,1951.57,1602.284,1951.822,1601.788,1951.525z"/>
			</g>
			<path style="opacity:0.3;fill:#E87B50;" d="M1570.688,1967.226c-6.363-20.843-17.63-23.074-23.799-22.55l-2.156,16.643
				c-0.413,3.19,1.383,6.073,3.774,6.057L1570.688,1967.226z"/>
		</g>
		<path style="fill:#06062D;" d="M1437.985,1553.889c0,0,161.989,17.834,192.879,47.069c30.891,29.234,6.826,282.06,1.678,302.236
			c0,0-28.19,13.434-50.5,6.555s-10.384-135.962-10.384-135.962s2.574-92.004-0.858-104.901s-50.625-22.356-50.625-22.356
			s-155.416-74.36-151.125-74.36C1373.34,1572.169,1437.985,1553.889,1437.985,1553.889z"/>
		<path style="fill:#09083C;" d="M1258.665,1592.188c0.752-41.653,11.316-77.47,11.316-77.47l72.71,62.776l0.641-5.605
			c0,0,181.992-21.662,206.876,60.884c24.883,82.545,41.218,277.999,41.218,277.999s-18.236,23.983-50.842,9.366
			c0,0-49.365-216.858-66.635-234.055C1462.937,1675.118,1256.935,1688.001,1258.665,1592.188z"/>
		<path style="fill:#FFC0BB;" d="M1506.724,1269.988c0.689,0.656,1.835,0.294,2.004-0.643c1.307-7.249,5.564-30.033,7.483-30.116
			c2.283-0.099-1.026,20.354,0.834,21.378c1.86,1.024,4.583-19.008,7.041-18.72s-0.638,18.47,0.356,18.952
			c0.995,0.483,5.821-16.615,7.367-17.313c1.546-0.699-1.387,18.186-0.346,19.113c1.041,0.929,7.396-11.422,8.519-10.997
			c1.124,0.425,1.942,0.521-4.396,32.443l-3.032,12.46l-7.967,8.824l-13.42-4.97c0,0-18.188-37.778-17.308-39.264
			C1494.697,1259.722,1496.109,1259.884,1506.724,1269.988z"/>
		<path style="fill:#EF972E;" d="M1451.307,1396.557c0,0,24.808,58.755,67.242,59.408c42.434,0.652,17.626-163.861,17.626-163.861
			h-31.989c0,0-4.543,87.479-6.841,88.132c-2.298,0.653-22.536-48.31-22.536-48.31L1451.307,1396.557z"/>
		<g>
			<polygon style="fill:#FFC0BB;" points="1356.425,1204.887 1354.495,1233.22 1382.117,1250.242 1393.11,1244.832 
				1393.725,1209.748 			"/>
			<path style="fill:#F99893;" d="M1393.325,1232.56l0.399-22.812l-37.299-4.861l-0.8,11.739
				C1362.935,1222.542,1375.676,1230.463,1393.325,1232.56z"/>
			<path style="fill:#333333;" d="M1318.046,1162.128c0,0-18.118-45.181,7.773-66.479c25.891-21.3,56.08-23.36,77.871-15.596
				c21.791,7.764,38.897,42.721,32.56,64.853l-70.336-10.9L1318.046,1162.128z"/>
			<path style="fill:#F99893;" d="M1428.561,1154.347c-1.565,6.616,1.611,12.912,7.095,14.063
				c5.483,1.152,11.198-3.277,12.764-9.894c1.566-6.615-1.611-12.912-7.095-14.063S1430.126,1147.731,1428.561,1154.347z"/>
			<path style="fill:#FFC0BB;" d="M1432.879,1190.787c1.146-2.932,2.017-5.984,2.594-9.124c1.722-8.461,1.836-17.157,1.325-24.64
				c-0.109-1.605-0.123-3.214-0.104-4.824c0.074-6.502-1.091-13.187-3.806-19.807c-8.734-21.301-31.455-34.641-55.229-32.374
				c-32.028,3.054-54.093,31.451-49.031,61.139c-3.664-1.23-7.505-1.012-10.583,0.971c-5.903,3.804-6.747,12.607-1.885,19.664
				s13.588,9.693,19.492,5.89c0.82-0.528,1.531-1.16,2.154-1.863c6.986,24.811,31.844,40.697,57.599,35.953
				c12.596-2.319,23.19-9.171,30.443-18.561c0.497-0.56,1.008-1.203,1.536-1.94
				C1429.698,1198.034,1431.489,1194.489,1432.879,1190.787z"/>
			<path style="fill:#333333;" d="M1379.583,1161.583c0.502,2.669-1.341,5.247-4.119,5.759s-5.436-1.237-5.938-3.906
				c-0.503-2.67,1.341-5.248,4.119-5.76C1376.421,1157.165,1379.08,1158.914,1379.583,1161.583z"/>
			<path style="fill:#333333;" d="M1421.184,1156.01c0.502,2.67-1.342,5.248-4.119,5.76s-5.436-1.238-5.938-3.907
				c-0.503-2.669,1.341-5.247,4.119-5.759S1420.681,1153.341,1421.184,1156.01z"/>
			<path style="fill:#333333;" d="M1382.756,1152.887c-2.461-0.866-4.972-1.419-7.487-1.674c-2.518-0.233-5.039-0.108-7.46,0.445
				c-1.214,0.262-2.395,0.662-3.539,1.145c-0.582,0.227-1.13,0.519-1.693,0.792c-0.281,0.136-0.543,0.308-0.818,0.457
				c-0.274,0.151-0.552,0.299-0.811,0.476c-2.125,1.342-4.075,2.988-5.958,4.783c1.277-2.233,3.021-4.247,5.128-5.892
				c1.051-0.823,2.199-1.551,3.431-2.127c1.225-0.586,2.521-1.052,3.857-1.347c2.669-0.604,5.462-0.621,8.093-0.086
				c1.318,0.254,2.596,0.653,3.821,1.146C1380.535,1151.515,1381.715,1152.109,1382.756,1152.887z"/>
			<path style="fill:#333333;" d="M1403.178,1150.15c0.8-1.022,1.782-1.907,2.821-2.72c1.052-0.797,2.18-1.519,3.385-2.11
				c2.396-1.209,5.096-1.928,7.83-2.047c1.368-0.068,2.74,0.04,4.076,0.283c1.34,0.231,2.639,0.632,3.87,1.149
				c2.466,1.032,4.678,2.517,6.498,4.334c-2.289-1.235-4.604-2.312-7.007-3.046c-0.296-0.103-0.604-0.172-0.908-0.246
				c-0.305-0.072-0.602-0.168-0.909-0.226c-0.614-0.115-1.221-0.253-1.842-0.318c-1.231-0.163-2.475-0.239-3.716-0.173
				c-2.482,0.104-4.947,0.646-7.314,1.534C1407.602,1147.474,1405.324,1148.668,1403.178,1150.15z"/>
			<path style="fill:#333333;" d="M1328.628,1161.157c0,0,34.791-19.177,51.404-43.478c0,0,1.158,11.944-2.403,16.666
				c1.413,0.66,25.467-12.443,28.842-31.883c3.375-19.44-30.379-7.605-30.379-7.605s-20.154-0.484-20.965,0.049
				s-13.818,10.554-14.385,11.267c-0.567,0.713-15.671,28.421-15.671,28.421l-3.463,10.017l-3.562,17.518L1328.628,1161.157z"/>
			<path style="opacity:0.3;fill:#F99893;" d="M1388.595,1189.261c0,0,5.673-2.845,11.739-0.069c0,0,5.561-4.45,10.792-1.612
				c0,0-1.052,8.957-11.066,9.704S1388.595,1189.261,1388.595,1189.261z"/>
			<path style="fill:#F99893;" d="M1382.975,1186.855c1.242,0.724,2.52,1.374,3.848,1.914c1.313,0.564,2.66,1.049,4.037,1.423
				c2.749,0.749,5.597,1.153,8.434,1.004c2.838-0.135,5.625-0.85,8.228-2.007c2.588-1.193,4.965-2.834,7.165-4.701
				c-0.948,1.078-1.986,2.09-3.115,3.011c-1.128,0.924-2.382,1.699-3.672,2.417c-1.313,0.68-2.701,1.234-4.141,1.632
				c-1.443,0.38-2.926,0.614-4.417,0.706c-2.987,0.132-5.974-0.328-8.746-1.289
				C1387.825,1190.006,1385.201,1188.663,1382.975,1186.855z"/>
			<path style="fill:#F99893;" d="M1398.022,1156.826c1.722,2.023,3.25,4.18,4.67,6.402c1.423,2.223,2.715,4.526,3.809,6.955
				c0.52,1.227,1.008,2.477,1.289,3.855c0.059,0.351,0.104,0.711,0.109,1.094c0.003,0.191-0.024,0.404-0.041,0.604
				c-0.058,0.223-0.084,0.436-0.213,0.671c-0.065,0.118-0.136,0.234-0.21,0.345l-0.188,0.205c-0.126,0.132-0.245,0.273-0.377,0.396
				c-0.27,0.235-0.532,0.48-0.815,0.688c-1.107,0.869-2.31,1.543-3.536,2.15c-1.235,0.59-2.494,1.12-3.802,1.52
				c2.283-1.438,4.588-2.872,6.479-4.604c0.24-0.212,0.443-0.446,0.658-0.671l0.291-0.347l0.141-0.172
				c0.007-0.033,0.017-0.061,0.033-0.087c0.128-0.274,0.061-0.927-0.079-1.481c-0.283-1.167-0.751-2.362-1.276-3.526
				c-1.023-2.351-2.232-4.656-3.409-6.979C1400.363,1161.523,1399.156,1159.205,1398.022,1156.826z"/>
			<path style="fill:#333333;" d="M1354.495,1089.581c0,0-32.011-61.589-85.496-56.321s-65.235,48.623-62.804,70.098
				s17.018,45.381,3.241,75.364c-13.776,29.984-10.535,74.969,31.604,71.521c42.14-3.449,32.82-46.527,33.226-61.859
				c0.405-15.333,29.984-13.733,22.69-41.681c-7.293-27.948-26.742-56.716,0.405-60.768c27.148-4.052,43.355,8.509,43.355,8.509
				L1354.495,1089.581z"/>
		</g>
		<g>
			<path style="fill:#70C0FD;" d="M1463.366,1231.125v45.358c0,8.964,7.266,16.229,16.229,16.229h21.782
				c7.417,0,13.672-4.976,15.609-11.771c11.055-0.184,19.991-9.231,19.991-20.329c0-10.89-8.604-19.807-19.371-20.311v-9.178
				H1463.366z M1517.606,1273.96v-26.693c6.931,0.495,12.419,6.292,12.419,13.347S1524.538,1273.465,1517.606,1273.96z"/>
			<path style="opacity:0.3;fill:#4188E4;" d="M1506.22,1231.125h11.386v45.358c0,8.964-7.266,16.229-16.229,16.229h-21.782
				c-5.33,0-10.059-2.568-13.018-6.536C1512.231,1287.51,1506.22,1231.125,1506.22,1231.125z"/>
			<path style="fill:#E6F7FF;" d="M1463.366,1231.641c0,2.806,12.173,5.08,27.189,5.08s27.189-2.274,27.189-5.08
				c0-2.807-12.173-5.081-27.189-5.081S1463.366,1228.834,1463.366,1231.641z"/>
			<path style="fill:#70C0FD;" d="M1465.563,1231.641c0,2.161,11.189,3.913,24.993,3.913c13.803,0,24.992-1.752,24.992-3.913
				c0-2.162-11.189-3.914-24.992-3.914C1476.752,1227.727,1465.563,1229.479,1465.563,1231.641z"/>
			<path style="fill:#4C2816;" d="M1514.671,1232.67c-2.888,1.662-12.589,2.884-24.116,2.884s-21.229-1.222-24.116-2.884
				c2.887-1.662,12.589-2.884,24.116-2.884S1511.783,1231.008,1514.671,1232.67z"/>
			<path style="opacity:0.3;fill:#4188E4;" d="M1532.084,1260.613c0,7.055-5.488,12.852-12.419,13.347v-0.311
				c5.928-1.373,10.361-6.696,10.361-13.036s-4.433-11.663-10.361-13.036v-0.311
				C1526.596,1247.762,1532.084,1253.559,1532.084,1260.613z"/>
			<path style="opacity:0.2;fill:#FFFFFF;" d="M1469.356,1272.878L1469.356,1272.878c1.223,0,2.214-0.991,2.214-2.214v-28.622
				c0-1.223-0.991-2.214-2.214-2.214l0,0c-1.223,0-2.214,0.991-2.214,2.214v28.622
				C1467.142,1271.887,1468.133,1272.878,1469.356,1272.878z"/>
		</g>
		<path style="fill:#FFC0BB;" d="M1466.893,1274.374c0.493,0.814,1.693,0.766,2.102-0.093c3.166-6.651,13.262-27.516,15.135-27.091
			c2.228,0.505-6.339,19.368-4.813,20.845c1.525,1.478,9.417-17.135,11.712-16.211s-5.469,17.652-4.637,18.38
			s9.983-14.501,11.658-14.769s-6.117,17.182-5.356,18.351c0.76,1.169,10.138-9.076,11.109-8.371
			c0.972,0.705,1.737,1.013-12.768,30.146l-6.2,11.226l-10.006,6.421l-11.643-8.322c0,0-7.619-41.23-6.381-42.433
			C1457.987,1261.308,1459.307,1261.835,1466.893,1274.374z"/>
		<path style="fill:#FEB546;" d="M1351.423,1228.125c0,0-60.713,14.363-68.547,52.88c-7.834,38.518-41.781,242.854-28.072,309.443
			c0,0,37.211,57.449,125.344-3.265c0,0,34.601-30.03,59.408-33.294l-22.196-99.231l42.434-129.913c0,0,5.223-75.729-51.574-86.174
			C1408.22,1238.571,1378.189,1249.017,1351.423,1228.125z"/>
		<path style="fill:#F9A435;" d="M1300.176,1268.918c9.435-8.876,24.849-5.957,30.994,5.445
			c15.133,28.081,58.273,107.755,62.035,110.442c4.57,3.264,64.63-88.301,64.63-88.301s21.543,0.821,31.336,8.655
			c0,0-32.642,176.265-91.396,162.556c-44.946-10.487-86.071-89.356-102.92-125.851c-7.646-16.563-9.693-35.284-5.124-52.944
			C1291.734,1281.175,1294.976,1273.812,1300.176,1268.918z"/>
	</g>
	<g>
		<g>
			<rect x="1347.877" y="1486.93" style="fill:#183658;" width="25.113" height="484.911"/>
			<rect x="1584.829" y="1486.93" style="fill:#183658;" width="25.113" height="484.911"/>
			<rect x="2301.532" y="1486.93" style="fill:#183658;" width="25.112" height="484.911"/>
			<rect x="2538.484" y="1486.93" style="fill:#183658;" width="25.113" height="484.911"/>
			<path style="fill:#FFFFFF;" d="M2631.797,1492.654H1283.146c-1.384,0-2.507-1.122-2.507-2.507v-25.901
				c0-1.385,1.123-2.507,2.507-2.507h1348.651c1.385,0,2.508,1.122,2.508,2.507v25.901
				C2634.305,1491.532,2633.182,1492.654,2631.797,1492.654z"/>
		</g>
		<path style="opacity:0.2;fill:#E0A689;" d="M2631.797,1492.654h-336.546c-1.385,0-2.507-1.122-2.507-2.507v-25.901
			c0-1.385,1.122-2.507,2.507-2.507h336.546c1.385,0,2.508,1.122,2.508,2.507v25.901
			C2634.305,1491.532,2633.182,1492.654,2631.797,1492.654z"/>
	</g>
	<rect x="314.342" y="1971.646" style="fill:#07085B;" width="2922.774" height="13.44"/>
	<g>
		<path style="fill:#DAEEF7;" d="M742.961,1087.39L742.961,1087.39c0-12.717-9.45-23.22-21.71-24.886v-31.988
			c0-22.605-18.325-40.93-40.93-40.93H515.51c-22.605,0-40.93,18.325-40.93,40.93v32.137c-11.795,2.064-20.762,12.351-20.762,24.737
			l0,0c0,12.387,8.967,22.672,20.762,24.737v167.619c-11.795,2.065-20.762,12.351-20.762,24.737v0.001
			c0,12.387,8.967,22.672,20.762,24.737v3.695c0,22.604,18.325,40.93,40.93,40.93h32.569c5.883,0,10.652,4.769,10.652,10.652v11.679
			H637.1v-11.679c0-5.884,4.769-10.652,10.652-10.652h32.569c22.605,0,40.93-18.325,40.93-40.93v-3.548
			c12.26-1.666,21.71-12.169,21.71-24.885v-0.001c0-12.716-9.45-23.22-21.71-24.885v-167.324
			C733.511,1110.609,742.961,1100.106,742.961,1087.39z"/>
		<polygon style="fill:#88C7FF;" points="474.58,1112.127 642.551,1114.26 474.58,1116.393 		"/>
		<polygon style="fill:#88C7FF;" points="721.239,1058.242 553.268,1060.376 721.239,1062.509 		"/>
		<polygon style="fill:#88C7FF;" points="474.58,1329.186 642.551,1331.318 474.58,1333.451 		"/>
		<polygon style="fill:#88C7FF;" points="721.239,1275.301 553.268,1277.435 721.239,1279.567 		"/>
		<path style="opacity:0.3;fill:#DAEEF7;" d="M742.961,1087.39L742.961,1087.39c0-12.717-9.451-23.22-21.71-24.886v-31.988
			c0-22.605-18.325-40.93-40.93-40.93h-29.187c-13.307,115.695-49.112,290.712-145.427,383.07c3.142,0.772,6.423,1.19,9.803,1.19
			h32.569c5.883,0,10.652,4.769,10.652,10.652v11.679H637.1v-11.679c0-5.884,4.769-10.652,10.652-10.652h32.569
			c22.605,0,40.93-18.325,40.93-40.93v-3.548c12.26-1.666,21.71-12.169,21.71-24.886l0,0c0-12.716-9.451-23.22-21.71-24.885
			v-167.324C733.51,1110.609,742.961,1100.106,742.961,1087.39z"/>
		<ellipse style="fill:#88C7FF;" cx="597.92" cy="1188.445" rx="123.34" ry="7.478"/>
		<path style="opacity:0.5;fill:#88C7FF;" d="M721.25,1279.599v-91.108c-0.405,4.109-55.463,7.434-123.331,7.434
			c-68.119,0-123.34-3.349-123.34-7.479v91.301c-11.795,2.065-20.762,12.351-20.762,24.737c0,12.388,8.967,22.673,20.762,24.738
			v3.695c0,22.604,18.325,40.93,40.93,40.93h32.569c5.883,0,10.652,4.769,10.652,10.652v11.679H637.1v-11.679
			c0-5.884,4.769-10.652,10.652-10.652h32.569c22.605,0,40.93-18.325,40.93-40.93v-3.548c12.26-1.666,21.71-12.169,21.71-24.886
			C742.961,1291.768,733.511,1281.264,721.25,1279.599z"/>
		<path style="fill:#4188E4;" d="M658.838,1441.283H537.94c-2.45,0-4.437-1.987-4.437-4.438v-43.395c0-2.45,1.986-4.437,4.437-4.437
			h120.898c2.451,0,4.437,1.986,4.437,4.437v43.395C663.275,1439.296,661.289,1441.283,658.838,1441.283z"/>
		<path style="fill:#88C7FF;" d="M714.088,1971.746H482.691c-13.066,0-23.659-10.593-23.659-23.659v-528.25
			c0-13.066,10.593-23.659,23.659-23.659h231.397c13.066,0,23.659,10.593,23.659,23.659v528.25
			C737.747,1961.153,727.155,1971.746,714.088,1971.746z"/>
		<path style="fill:#4188E4;" d="M682.345,1663.778h-167.91v-165.339c0-7.872,6.381-14.254,14.253-14.254h139.404
			c7.872,0,14.253,6.382,14.253,14.254V1663.778z"/>
		<path style="fill:#B0D6FF;" d="M668.24,1663.778H528.539v-154.891c0-6.55,5.309-11.858,11.858-11.858h115.984
			c6.549,0,11.859,5.309,11.859,11.858V1663.778z"/>
		<path style="fill:#4188E4;" d="M700.717,1675.632H498.433c-0.556,0-1.006-0.45-1.006-1.006v-9.841c0-0.556,0.45-1.007,1.006-1.007
			h202.284c0.556,0,1.006,0.451,1.006,1.007v9.841C701.723,1675.182,701.272,1675.632,700.717,1675.632z"/>
		<path style="fill:#18196B;" d="M691.625,1959.75H505.153c-17.838,0-32.351-14.512-32.351-32.351v-468.738
			c0-17.839,14.512-32.351,32.351-32.351h186.472c17.838,0,32.351,14.512,32.351,32.351v468.738
			C723.976,1945.238,709.463,1959.75,691.625,1959.75z M505.153,1428.443c-16.662,0-30.218,13.556-30.218,30.218v468.738
			c0,16.662,13.556,30.218,30.218,30.218h186.472c16.662,0,30.218-13.556,30.218-30.218v-468.738
			c0-16.662-13.556-30.218-30.218-30.218H505.153z"/>
		<path style="fill:#4188E4;" d="M501.06,1934.457c0,3.186-2.582,5.768-5.767,5.768c-3.185,0-5.767-2.582-5.767-5.768
			c0-3.185,2.582-5.767,5.767-5.767C498.478,1928.69,501.06,1931.272,501.06,1934.457z"/>
		<path style="fill:#4188E4;" d="M501.06,1453.812c0,3.185-2.582,5.767-5.767,5.767c-3.185,0-5.767-2.582-5.767-5.767
			c0-3.186,2.582-5.768,5.767-5.768C498.478,1448.044,501.06,1450.626,501.06,1453.812z"/>
		<path style="fill:#4188E4;" d="M707.49,1934.457c0,3.186-2.582,5.768-5.767,5.768c-3.185,0-5.767-2.582-5.767-5.768
			c0-3.185,2.582-5.767,5.767-5.767C704.908,1928.69,707.49,1931.272,707.49,1934.457z"/>
		<path style="fill:#4188E4;" d="M707.49,1453.812c0,3.185-2.582,5.767-5.767,5.767c-3.185,0-5.767-2.582-5.767-5.767
			c0-3.186,2.582-5.768,5.767-5.768C704.908,1448.044,707.49,1450.626,707.49,1453.812z"/>
		<path style="fill:#18196B;" d="M667.692,1888.795H529.087c-8.863,0-16.075-7.211-16.075-16.074v-49.715
			c0-8.863,7.211-16.074,16.075-16.074h138.605c8.864,0,16.075,7.211,16.075,16.074v49.715
			C683.767,1881.584,676.556,1888.795,667.692,1888.795z M529.087,1809.775c-7.295,0-13.231,5.936-13.231,13.23v49.715
			c0,7.295,5.935,13.23,13.231,13.23h138.605c7.295,0,13.23-5.936,13.23-13.23v-49.715c0-7.295-5.935-13.23-13.23-13.23H529.087z"/>
		<g>
			<path style="fill:#FFFFFF;" d="M567.64,1575.813h-1.225l3.206-29.042c0.208-1.882-1.265-3.526-3.158-3.526h-2.636h-6.184h-2.636
				c-1.893,0-3.366,1.645-3.158,3.526l3.207,29.042h-1.226c-1.31,0-2.371,1.062-2.371,2.37v7.937c0,1.31,1.061,2.37,2.371,2.37
				h13.81c1.309,0,2.371-1.061,2.371-2.37v-7.937C570.011,1576.875,568.949,1575.813,567.64,1575.813z"/>
			<path style="fill:#FF7B8C;" d="M571.848,1584.81h-22.029c-0.227,0-0.412-0.185-0.412-0.412v-4.032
				c0-0.228,0.185-0.412,0.412-0.412h22.029c0.228,0,0.412,0.185,0.412,0.412v4.032
				C572.26,1584.625,572.075,1584.81,571.848,1584.81z"/>
		</g>
		<path style="fill:#FFFFFF;" d="M642.752,1575.813h-1.226l3.207-29.042c0.207-1.882-1.266-3.526-3.158-3.526h-2.636h-6.184h-2.636
			c-1.893,0-3.366,1.645-3.159,3.526l3.207,29.042h-1.226c-1.309,0-2.371,1.062-2.371,2.37v7.937c0,1.31,1.061,2.37,2.371,2.37
			h13.811c1.309,0,2.371-1.061,2.371-2.37v-7.937C645.123,1576.875,644.061,1575.813,642.752,1575.813z"/>
		<path style="fill:#DAEEF7;" d="M646.96,1584.81h-22.029c-0.228,0-0.412-0.185-0.412-0.412v-4.032c0-0.228,0.185-0.412,0.412-0.412
			h22.029c0.227,0,0.412,0.185,0.412,0.412v4.032C647.372,1584.625,647.188,1584.81,646.96,1584.81z"/>
		<polygon style="fill:#FF5B7E;" points="641.812,1604.454 629.881,1604.454 612.693,1604.454 622.703,1663.905 629.881,1663.905 
			641.812,1663.905 648.991,1663.905 659,1604.454 		"/>
		<path style="fill:#DAEEF7;" d="M662.152,1610.057h-52.61c-0.298,0-0.539-0.241-0.539-0.539v-5.271
			c0-0.298,0.241-0.539,0.539-0.539h52.61c0.297,0,0.539,0.241,0.539,0.539v5.271
			C662.69,1609.815,662.449,1610.057,662.152,1610.057z"/>
		<path style="opacity:0.3;fill:#DAEEF7;" d="M620.84,1619.401c-1.913,0-3.756,0.294-5.489,0.837l6.028,35.806
			c9.872-0.286,17.789-8.373,17.789-18.314C639.168,1627.607,630.962,1619.401,620.84,1619.401z"/>
	</g>
	<g>
		<path style="fill:#07085B;" d="M1747.297,1334.325h-172.523l-48.917,119.306h-83.106c-2.324,0-4.208,1.883-4.208,4.204l0,0
			c0,2.322,1.884,4.205,4.208,4.205h247.214L1747.297,1334.325z"/>
		<path style="fill:#DAEEF7;" d="M1661.75,1402.405c-1.018,5.085-5.454,8.485-9.907,7.595c-4.453-0.89-7.237-5.733-6.219-10.818
			c1.018-5.085,5.453-8.485,9.906-7.595C1659.983,1392.477,1662.768,1397.32,1661.75,1402.405z"/>
	</g>
	<g>
		<rect x="2652.917" y="894.591" style="fill:#FFFFFF;" width="26.672" height="107.901"/>
		
			<rect x="2849.189" y="936.673" transform="matrix(-1.836970e-16 1 -1 -1.836970e-16 3850.4114 -1869.1628)" style="fill:#AFDBFE;" width="21.197" height="107.902"/>
		
			<rect x="2863.544" y="915.406" transform="matrix(-1.836970e-16 1 -1 -1.836970e-16 3843.4988 -1904.7854)" style="fill:#FFFFFF;" width="21.197" height="107.901"/>
		
			<rect x="2841.213" y="894.671" transform="matrix(-1.836970e-16 1 -1 -1.836970e-16 3800.4324 -1903.1907)" style="fill:#142666;" width="21.197" height="107.9"/>
		<rect x="2683.158" y="851.127" style="fill:#AFDBFE;" width="27.274" height="149.77"/>
		<rect x="2624.627" y="867.636" style="fill:#142666;" width="25.121" height="133.262"/>
		
			<rect x="2738.408" y="867.635" transform="matrix(0.8986 -0.4387 0.4387 0.8986 -131.0119 1301.5133)" style="fill:#142666;" width="25.121" height="133.262"/>
		<path style="fill:#AFDBFE;" d="M3000.633,855.7c-6.615,0-11.979,5.363-11.979,11.978v13.343c0,2.449-1.984,4.434-4.434,4.434
			h-5.477v-24.308c0-8.87-7.19-16.061-16.061-16.061s-16.061,7.19-16.061,16.061v51.163h-3.086c-3.905,0-7.072-3.167-7.072-7.072
			v-10.705c0-6.615-5.362-11.978-11.978-11.978l0,0c-6.615,0-11.978,5.363-11.978,11.978v17.777
			c0,13.23,10.725,23.956,23.955,23.956h10.158v30.556h32.121v-57.411h9.91c13.23,0,23.956-10.725,23.956-23.956v-17.777
			C3012.61,861.063,3007.248,855.7,3000.633,855.7z"/>
		<path style="opacity:0.5;fill:#70C0FD;" d="M2962.437,966.822V845.099c-8.755,0.134-15.813,7.262-15.813,16.048v51.163h-3.086
			c-3.905,0-7.072-3.167-7.072-7.072v-10.705c0-6.615-5.362-11.978-11.978-11.978l0,0c-6.615,0-11.978,5.363-11.978,11.978v17.777
			c0,13.23,10.725,23.956,23.955,23.956h10.158v30.556H2962.437z"/>
		<path style="fill:#07085B;" d="M2972.51,1000.142h-20.147c-9.363,0-16.954-7.591-16.954-16.954v-37.102h54.057v37.102
			C2989.465,992.551,2981.873,1000.142,2972.51,1000.142z"/>
		<rect x="2604.691" y="1000.142" style="fill:#07085B;" width="431.449" height="12.189"/>
	</g>
	<g>
		<ellipse style="fill:#142666;" cx="673.597" cy="616.143" rx="121.653" ry="121.907"/>
		<ellipse style="fill:#FFFFFF;" cx="673.597" cy="616.143" rx="104.165" ry="104.383"/>
		<g>
			
				<rect x="579.294" y="596.366" transform="matrix(6.123234e-17 -1 1 6.123234e-17 -34.7944 1196.3389)" style="fill:#142666;" width="2.957" height="38.401"/>
			
				<rect x="765.181" y="596.366" transform="matrix(6.123234e-17 -1 1 6.123234e-17 151.0928 1382.2261)" style="fill:#142666;" width="2.957" height="38.401"/>
			<rect x="671.96" y="504.672" style="fill:#142666;" width="2.951" height="38.481"/>
			<rect x="671.96" y="690.201" style="fill:#142666;" width="2.951" height="38.481"/>
			<path style="fill:#142666;" d="M676.776,616.143c0,1.759-1.423,3.186-3.179,3.186c-1.756,0-3.179-1.426-3.179-3.186
				c0-1.759,1.423-3.186,3.179-3.186C675.352,612.957,676.776,614.383,676.776,616.143z"/>
			<g>
				<path style="fill:#142666;" d="M673.597,617.567c-0.363,0-0.728-0.139-1.004-0.417l-57.118-57.236
					c-0.555-0.556-0.555-1.458,0-2.014c0.555-0.556,1.455-0.556,2.01,0l57.117,57.236c0.555,0.556,0.555,1.458,0,2.014
					C674.324,617.428,673.96,617.567,673.597,617.567z"/>
			</g>
			<g>
				<path style="fill:#142666;" d="M691.962,673.986c-0.236-0.119-0.427-0.328-0.517-0.6l-18.462-55.883
					c-0.179-0.543,0.115-1.129,0.656-1.309c0.542-0.18,1.127,0.115,1.306,0.658l18.462,55.883c0.18,0.543-0.114,1.129-0.656,1.308
					C692.48,674.134,692.199,674.106,691.962,673.986z"/>
			</g>
		</g>
	</g>
	<g>
		<rect x="834.45" y="883.798" style="fill:#142666;" width="29.032" height="117.694"/>
		
			<rect x="1048.065" y="929.822" transform="matrix(-1.836970e-16 1 -1 -1.836970e-16 2048.1716 -71.0784)" style="fill:#70C0FD;" width="23.121" height="117.449"/>
		
			<rect x="1063.69" y="906.624" transform="matrix(-1.836970e-16 1 -1 -1.836970e-16 2040.5994 -109.9016)" style="fill:#142666;" width="23.121" height="117.449"/>
		
			<rect x="1039.384" y="884.007" transform="matrix(-1.836970e-16 1 -1 -1.836970e-16 1993.6753 -108.2124)" style="fill:#FFFFFF;" width="23.12" height="117.449"/>
		<rect x="867.367" y="836.39" style="fill:#FFFFFF;" width="29.688" height="163.363"/>
		<rect x="803.657" y="854.396" style="fill:#70C0FD;" width="27.344" height="145.356"/>
		<polygon style="fill:#70C0FD;" points="985.282,986.374 960.71,998.396 897.073,867.774 921.645,855.753 		"/>
		<rect x="781.956" y="998.928" style="fill:#4188E4;" width="359.914" height="13.296"/>
		<rect x="803.657" y="865.841" style="fill:#FFFFFF;" width="27.344" height="9.426"/>
		<rect x="840.826" y="893.757" style="fill:#97CEF7;" width="16.281" height="44.9"/>
		<rect x="867.367" y="854.396" style="fill:#97CEF7;" width="29.688" height="7.094"/>
		<rect x="867.367" y="976.909" style="fill:#97CEF7;" width="29.688" height="9.298"/>
	</g>
	<g>
		<rect x="1100.086" y="607.83" style="fill:#FFFFFF;" width="203.808" height="203.808"/>
		<rect x="1120.968" y="628.711" style="fill:#B0D6FF;" width="162.044" height="162.044"/>
	</g>
	<g>
		<rect x="2739.756" y="528.221" style="fill:#FFFFFF;" width="161.692" height="161.692"/>
		<rect x="2756.323" y="544.788" style="fill:#B0D6FF;" width="128.558" height="128.559"/>
	</g>
	<g>
		<rect x="897.184" y="493.3" style="fill:#FFFFFF;" width="139.719" height="139.72"/>
		<rect x="911.499" y="507.616" style="fill:#B0D6FF;" width="111.088" height="111.088"/>
	</g>
	<g>
		<rect x="2572.351" y="635.66" style="fill:#FFFFFF;" width="109.075" height="109.075"/>
		<rect x="2583.526" y="646.835" style="fill:#B0D6FF;" width="86.724" height="86.723"/>
	</g>
</g>
</svg>
